<?xml version="1.0" standalone="no"?>
<!DOCTYPE svg PUBLIC "-//W3C//DTD SVG 1.1//EN" "http://www.w3.org/Graphics/SVG/1.1/DTD/svg11.dtd" >
<svg xmlns="http://www.w3.org/2000/svg" width="100%" height="100%">
<metadata>
Created by FontXChange 20110222 at Tue Feb 11 10:07:38 2014
 By Jerochim, Chris
Copyright (c) 2011 by Ben Dalrymple. All rights reserved.
</metadata>
<defs>
<font id="GearedSlab-Extrabold" horiz-adv-x="334" >
  <font-face 
    font-family="GearedSlab"
    font-weight="800"
    font-stretch="condensed"
    units-per-em="1000"
    panose-1="0 0 0 0 0 0 0 0 0 0"
    ascent="750"
    descent="-250"
    x-height="499"
    cap-height="748"
    bbox="11 -266 896 939"
    underline-thickness="50"
    underline-position="-50"
    unicode-range="U+0020-FB02"
  />
<missing-glyph horiz-adv-x="250" 
 />
    <glyph glyph-name="fi" unicode="fi" horiz-adv-x="542" 
d="M283 627q0 -9 -3.5 -10.5t-5.5 -0.5q-20 8 -36 1t-16 -29v-86h61v-53q0 -30 -15 -52.5t-46 -22.5v-239q1 -8 3.5 -12t7.5 -7q8 -5 15.5 -21t7.5 -36v-58h-206v58q0 20 7.5 36t15.5 21q4 3 7 6.5t4 10.5v242h-63v68q0 29 17 44t46 15v153q0 32 16 53t42.5 31.5t60.5 11
t71 -8.5q6 -2 7.5 -5.5t1.5 -10.5v-99v0zM491 116q8 -5 15.5 -16.5t7.5 -30.5v-69h-206v70q0 19 7.5 30.5t15.5 16.5q4 3 7 6.5t4 10.5v227q-1 11 -12 18q-7 5 -14.5 16t-7.5 28v77h150q23 0 23 -19v-344q0 -9 3 -13.5t7 -7.5zM400 560q-29 0 -49.5 20.5t-20.5 49.5t20.5 50
t49.5 21t50 -21t21 -50t-21 -49.5t-50 -20.5z" />
    <glyph glyph-name="fl" unicode="fl" horiz-adv-x="539" 
d="M283 627q0 -9 -3.5 -10.5t-5.5 -0.5q-20 8 -36 1t-16 -29v-86h61v-53q0 -30 -15 -52.5t-46 -22.5v-239q1 -8 3.5 -12t7.5 -7q8 -5 15.5 -21t7.5 -36v-58h-206v58q0 20 7.5 36t15.5 21q4 3 7 6.5t4 10.5v242h-63v68q0 29 17 44t46 15v153q0 32 16 53t42.5 31.5t60.5 11
t71 -8.5q6 -2 7.5 -5.5t1.5 -10.5v-99v0zM488 114q8 -6 15.5 -17t7.5 -30v-67h-205v68q0 19 7.5 30t15.5 17q4 2 7 5.5t4 10.5v482q-1 7 -4 11t-8 8q-7 5 -14.5 16t-7.5 28v73h146q11 0 18 -8t7 -20v-11v-21v-49.5v-96.5t0.5 -162t0.5 -246q0 -10 2.5 -14t7.5 -7z" />
    <glyph glyph-name=".notdef" horiz-adv-x="250" 
 />
    <glyph glyph-name=".null" horiz-adv-x="0" 
 />
    <glyph glyph-name="nonmarkingreturn" horiz-adv-x="250" 
 />
    <glyph glyph-name="space" unicode=" " horiz-adv-x="250" 
 />
    <glyph glyph-name="space" unicode="&#xa0;" horiz-adv-x="250" 
 />
    <glyph glyph-name="E" unicode="E" horiz-adv-x="453" 
d="M211 632q-5 0 -9.5 -4.5t-4.5 -9.5v-166q0 -7 4.5 -10.5t10.5 -3.5h126q5 0 10.5 -3.5t5.5 -11.5v-80q0 -14 -15 -14h-127q-15 0 -15 -13v-187q0 -6 5 -10t11 -4h80q9 0 14 10q2 5 5 12t8.5 13t13.5 10.5t19 4.5h62v-140q0 -11 -11 -18t-22 -7h-65h-229h-60v60
q0 22 6 33.5t16 16.5q12 7 12 21v486q0 16 -13 23q-10 5 -15.5 15.5t-5.5 30.5v63h358q12 0 20.5 -9t8.5 -17v-132h-59q-20 0 -32 10t-17 19q-7 12 -21 12h-75v0z" />
    <glyph glyph-name="F" unicode="F" horiz-adv-x="440" 
d="M386 748q8 0 17 -8t9 -20v-131h-43q-21 0 -37.5 10t-21.5 19q-3 5 -7.5 9t-15.5 4h-72q-7 0 -12 -4.5t-5 -10.5v-167q0 -9 5 -12t13 -3h121q8 0 11 -12t3 -19v-63q0 -14 -13 -14h-125q-5 0 -10 -4t-5 -11v-180q0 -11 3 -15t8 -7q8 -6 15.5 -17t7.5 -28v-63h-204v63
q0 17 8 28t16 17q4 3 6.5 6t3.5 11v491q0 16 -12 21q-10 5 -16 16t-6 34v60h358v0z" />
    <glyph glyph-name="G" unicode="G" horiz-adv-x="485" 
d="M442 9q0 -10 -11 -10h-30q-9 0 -11 7q-5 8 -11.5 11.5t-13.5 4t-13.5 -1.5t-10.5 -4q-40 -22 -102 -22q-41 0 -76.5 9t-62 27.5t-42 47t-15.5 66.5v464q0 77 50.5 114t144.5 37q93 0 148.5 -37.5t55.5 -113.5v-68h-90q-28 0 -40 10.5t-12 34.5v1q0 28 -17.5 42.5
t-44.5 14.5q-28 0 -44 -14t-16 -46v-398q0 -40 18.5 -57t45.5 -17q28 0 46.5 17.5t18.5 52.5v82q0 11 -4.5 16.5t-12.5 10.5q-18 10 -18 65v36h139q15 0 23 -9.5t8 -24.5v-348z" />
    <glyph glyph-name="H" unicode="H" horiz-adv-x="530" 
d="M468 130q0 -11 3 -15t7 -7q8 -6 16 -17t8 -28v-63h-205v63q0 17 8 28t16 17q5 3 7.5 7t2.5 15v187q0 14 -15 14h-102q-14 0 -14 -14v-187q0 -11 2.5 -15t7.5 -7q8 -6 16 -17t8 -28v-63h-206v63q0 17 8 28t16 17q5 3 7.5 7t2.5 15h1v26v462h-1q0 10 -2.5 14t-7.5 8
q-8 6 -16 17t-8 28v63h206v-63q0 -17 -8 -28t-16 -17q-5 -4 -7.5 -8t-2.5 -14v-155q0 -8 5 -11t10 -3h102q14 0 14 14v155q0 10 -2.5 14t-7.5 8q-8 6 -16 17t-8 28v63h205v-63q0 -17 -8 -28t-16 -17q-4 -4 -7 -8t-3 -14v-488z" />
    <glyph glyph-name="I" unicode="I" horiz-adv-x="261" 
d="M199 130q0 -11 3 -15t7 -7q8 -6 16 -17t8 -28v-63h-205v63q0 17 8 28t16 17q5 3 7.5 7t2.5 15v487v1q0 10 -2.5 14t-7.5 8q-8 6 -16 17t-8 28v63h205v-63q0 -17 -8 -28t-16 -17q-4 -4 -7 -8t-3 -14v-1v-487v0z" />
    <glyph glyph-name="J" unicode="J" horiz-adv-x="476" 
d="M448 748v-63q0 -17 -8 -28t-16 -17q-4 -3 -6.5 -7t-3.5 -12v-467q0 -38 -16.5 -68t-44 -50.5t-62.5 -31t-72 -10.5t-71.5 10.5t-61 31t-42.5 50.5t-16 68v67h82q17 0 28 -5.5t17 -14t8 -18t2 -16.5q0 -29 16 -43t38 -14t40 14t18 43v450v1q0 10 -2.5 14t-7.5 8
q-8 6 -16 17t-8 28v63h31h114h57h3z" />
    <glyph glyph-name="K" unicode="K" horiz-adv-x="528" 
d="M476 113q11 -5 17.5 -12.5t6.5 -30.5v-70h-32h-68h-11q-25 0 -37 9.5t-26 40.5l-101 238l-28 -51v-107q0 -10 3 -14t7 -8q8 -6 16 -17t8 -28v-63h-7h-196v53v10q0 17 8 28t16 17q5 4 7.5 8t2.5 14v33v455q0 11 -2.5 15t-7.5 7q-8 6 -16 17t-8 28v10v52v1h203v-63
q0 -17 -8 -28t-16 -17q-4 -3 -7 -7t-3 -15v-139l135 242q6 7 13 13q6 5 15 9.5t21 4.5h85v-63q0 -41 -22 -50q-9 -4 -16.5 -8.5t-10.5 -11.5q-2 -4 -16.5 -29t-32 -56.5t-33.5 -61t-22 -41.5q-2 -5 -1.5 -9t2.5 -12l106 -256q5 -11 12.5 -17.5t15.5 -10.5t15.5 -5.5
t12.5 -3.5z" />
    <glyph glyph-name="L" unicode="L" horiz-adv-x="451" 
d="M423 168v-129q0 -20 -11 -29.5t-19 -9.5h-14h-351v64q0 22 5.5 33.5t15.5 16.5q5 2 9 7t4 12v479v6q0 10 -2.5 14t-7.5 8q-8 6 -16 17t-8 28v63h206v-63q0 -17 -8 -28t-16 -17q-5 -4 -7.5 -8t-2.5 -14v-486q0 -17 13 -17h74q7 0 13.5 5t9.5 10q5 10 17 24t34 14h62z" />
    <glyph glyph-name="a" unicode="a" horiz-adv-x="445" 
d="M399 102q8 -5 13 -19.5t5 -33.5v-49h-117q-12 0 -19.5 7t-9.5 15q-14 -12 -33 -19.5t-48 -7.5q-49 0 -80.5 13t-49.5 35.5t-25 52t-7 61.5v13q0 40 14 65t37.5 40t54.5 22.5t66 13.5q12 2 21 4.5t15 5.5q7 4 12 7v33q0 11 -9 19t-25 8q-14 0 -26.5 -6t-12.5 -18
q0 -9 -6.5 -11.5t-21.5 -2.5h-108v27q0 25 11.5 48t34 41t55 29t75.5 11t75.5 -11.5t54 -31t32.5 -44t11 -49.5l-1 -246q0 -8 4.5 -13.5t8.5 -8.5h-1zM214 109q10 1 16 4t11 6q4 4 8 7v118q-5 -2 -9 -4t-9.5 -3.5t-10.5 -3.5q-12 -4 -21.5 -7.5t-16.5 -10.5t-11 -19t-4 -31
v-7q0 -27 14.5 -39t32.5 -10z" />
    <glyph glyph-name="b" unicode="b" horiz-adv-x="448" 
d="M290 504q33 0 57.5 -12.5t40.5 -34.5t24 -52.5t8 -65.5v-181q0 -38 -12.5 -68t-35 -51t-53.5 -32t-68 -11q-30 0 -47 4.5t-34 17.5q-2 -6 -6 -10q-9 -9 -27 -9h-109v73q0 19 7.5 30t15.5 17q5 3 8 7t3 14v478q0 8 -3 13t-8 9q-8 5 -15.5 16t-7.5 28v64h128q18 0 31 -8
t13 -40v-221q13 7 28 12q13 5 29 9t33 4zM282 326q0 18 -5.5 29t-13.5 16t-17.5 6t-17.5 -1q-15 -4 -22 -13q-4 -4 -6 -9v-222q4 -4 8 -7q9 -7 24 -7q17 0 33.5 12.5t16.5 30.5v165z" />
    <glyph glyph-name="c" unicode="c" horiz-adv-x="417" 
d="M290 311q-14 0 -21.5 0.5t-12 4t-5.5 11t-1 22.5q0 26 -14 33t-28 7t-27.5 -7.5t-13.5 -35.5v-194q0 -24 13 -31t31 -7t30.5 10t12.5 27q0 23 11.5 34t37.5 11h86v-58q0 -38 -14 -64.5t-38 -44t-56.5 -25.5t-68.5 -8q-37 0 -70 8t-58.5 26.5t-40.5 49t-15 76.5v188
q0 44 14.5 75t39 50t57.5 27.5t70 8.5q36 0 68.5 -10.5t57 -29.5t39 -45.5t14.5 -57.5v-51h-98v0z" />
    <glyph glyph-name="d" unicode="d" horiz-adv-x="450" 
d="M398 120q8 -6 16 -17t8 -30v-73h-107q-11 0 -17 2.5t-10 6.5t-6 10q-17 -13 -43 -18t-56 -5q-75 0 -114.5 43.5t-39.5 120.5v181q0 36 8 65.5t24.5 51.5t41.5 34t57 12q17 0 33.5 -2.5t29.5 -5.5q15 -4 29 -8v140q0 8 -3 8t-8 4q-8 5 -15.5 16t-7.5 28v64h129
q18 0 29.5 -8t11.5 -40v-559q0 -10 2.5 -14t7.5 -7zM252 359q-5 3 -9 6q-9 5 -20 8q-20 3 -37.5 -8.5t-17.5 -37.5v-164q0 -15 6 -24t15 -14.5t19.5 -7t19.5 0.5q7 1 11.5 4t7.5 6q4 4 5 7v224z" />
    <glyph glyph-name="e" unicode="e" horiz-adv-x="420" 
d="M165 236v-89q0 -11 5.5 -17.5t13 -10t15 -4.5t10.5 -1q6 0 14.5 1.5t16 5t12.5 10t5 17.5v1q0 23 16.5 34t43.5 11h75v-65q0 -33 -15.5 -58t-41.5 -42t-60 -25.5t-71 -8.5t-69 10.5t-56 31t-37.5 50.5t-13.5 68v183q0 38 14.5 69t39 52.5t57.5 33.5t70 12t70.5 -12
t58.5 -33.5t39.5 -52.5t14.5 -69v-51q0 -26 -7 -38.5t-39 -12.5h-181zM165 312h88v33q0 16 -5 25.5t-12 14t-14.5 6t-12.5 1.5t-12 -1.5t-14.5 -6.5t-12.5 -14t-5 -25v-33z" />
    <glyph glyph-name="f" unicode="f" horiz-adv-x="306" 
d="M283 627q0 -9 -3.5 -10.5t-5.5 -0.5q-20 8 -36 1t-16 -29v-86h61v-53q0 -30 -15 -52.5t-46 -22.5v-239q1 -8 3.5 -12t7.5 -7q8 -5 15.5 -21t7.5 -36v-58h-206v58q0 20 7.5 36t15.5 21q4 3 7 6.5t4 10.5v242h-63v68q0 29 17 44t46 15v153q0 32 16 53t42.5 31.5t60.5 11
t71 -8.5q6 -2 7.5 -5.5t1.5 -10.5v-99v0z" />
    <glyph glyph-name="g" unicode="g" horiz-adv-x="449" 
d="M421 500v-51q0 -19 -8 -33.5t-16 -20.5q-5 -3 -7.5 -7t-2.5 -14v-480q0 -38 -16 -67.5t-42 -50t-60 -31.5t-71 -11q-36 0 -65.5 12t-50.5 32t-32.5 45.5t-11.5 52.5v48h94q13 0 22 -10t9 -26v-2q0 -20 11.5 -26t23.5 -6q6 0 15 1t17.5 4.5t14.5 12t6 23.5v119
q-1 -2 -8 -5t-16.5 -5.5t-21.5 -4.5t-23 -3q-80 -4 -117 39t-37 120v181q0 77 36.5 122t110.5 45q19 0 37 -4t33 -9.5t24.5 -11t11.5 -7.5q1 8 4 14q2 5 6.5 10t11.5 5h118zM251 167v194q-4 5 -8 9q-9 9 -22 12q-12 3 -22.5 0t-18 -9t-12 -14.5t-4.5 -17.5v-181
q0 -20 18.5 -34t43.5 -9q7 1 11.5 4.5t7.5 8.5q4 5 6 11v26z" />
    <glyph glyph-name="h" unicode="h" horiz-adv-x="491" 
d="M440 115q8 -5 15.5 -16t7.5 -30v-69h-118q-11 0 -20.5 1t-17.5 7t-12.5 18.5t-4.5 35.5v262q0 16 -6 26t-15 15.5t-19.5 6.5t-20.5 0q-12 -3 -21 -10l-7 -7v-218q0 -10 3 -14t8 -8q7 -5 14.5 -16t7.5 -30v-69h-206v70q0 19 8 30t16 16q5 4 7.5 8t2.5 14v473q0 8 -3 13
t-8 9q-8 5 -15.5 16t-7.5 28v71h145q11 0 19.5 -5.5t8.5 -17.5v-247q9 7 22 13q11 5 27.5 9t37.5 4q42 0 69.5 -12t43.5 -33.5t22.5 -52.5t6.5 -69v-201q0 -9 3 -13t7 -8z" />
    <glyph glyph-name="i" unicode="i" horiz-adv-x="262" 
d="M211 116q8 -5 15.5 -16.5t7.5 -30.5v-69h-206v70q0 19 7.5 30.5t15.5 16.5q4 3 7 6.5t4 10.5v227q-1 11 -12 18q-7 5 -14.5 16t-7.5 28v77h150q23 0 23 -19v-344q0 -9 3 -13.5t7 -7.5zM120 560q-29 0 -49.5 20.5t-20.5 49.5t20.5 50t49.5 21t50 -21t21 -50t-21 -49.5
t-50 -20.5z" />
    <glyph glyph-name="j" unicode="j" horiz-adv-x="249" 
d="M196 -99q0 -68 -40 -109t-102 -49q-7 -1 -18 1t-11 17v82q0 10 4.5 14.5t7.5 6.5q8 4 14 13t6 26v460q-1 12 -11 18q-8 6 -15.5 17t-7.5 28v74h151q12 0 17 -5t5 -19v-575zM120 560q-29 0 -49.5 20.5t-20.5 49.5t20.5 50t49.5 21t50 -21t21 -50t-21 -49.5t-50 -20.5z" />
    <glyph glyph-name="k" unicode="k" horiz-adv-x="467" 
d="M412 119q11 -5 19 -17.5t8 -35.5v-66h-25h-41q-25 0 -40.5 7t-28.5 30q-2 2 -15.5 27t-30.5 54l-44 76l-14 -14v-46q0 -10 2.5 -14t7.5 -7q8 -6 14 -17t6 -30v-66h-199v67q0 19 6 30t14 17q5 3 8 7t3 14v476q0 8 -3 12.5t-8 8.5q-8 5 -15.5 16t-7.5 28v72h147
q11 0 18 -4.5t7 -18.5v-358l96 109q15 14 23.5 19t23.5 5h51h22v-57q0 -46 -24 -56q-7 -3 -12.5 -5.5t-12.5 -10.5l-66 -84l6 -11t15.5 -26.5t20.5 -34.5t21 -34.5t16.5 -26.5l6.5 -11q6 -8 12 -14.5t13 -9.5z" />
    <glyph glyph-name="l" unicode="l" horiz-adv-x="261" 
d="M210 114q8 -6 15.5 -17t7.5 -30v-67h-205v68q0 19 7.5 30t15.5 17q4 2 7 5.5t4 10.5v482q-1 7 -4 11t-8 8q-7 5 -14.5 16t-7.5 28v73h146q11 0 18 -8t7 -20v-11v-21v-49.5v-96.5t0.5 -162t0.5 -246q0 -10 2.5 -14t7.5 -7z" />
    <glyph glyph-name="M" unicode="M" horiz-adv-x="714" 
d="M686 683q0 -17 -5.5 -27.5t-12.5 -16.5q-8 -7 -17 -10v-499h1q0 -10 2.5 -14t7.5 -8q8 -6 16 -17t8 -28v-63h-206v63q0 17 8 28t16 17q5 4 7.5 8t2.5 14v290q0 2 -0.5 3t-2.5 -3q-30 -47 -54 -86q-11 -17 -21 -33t-18 -29.5t-14 -23.5t-8 -13q-5 -9 -16 -13t-23 -4t-23 4
t-15 12q-2 3 -7.5 13t-13.5 24t-18 30.5t-20 33.5q-24 40 -53 89q-1 2 -3 2t-2 -4v-292q0 -10 2.5 -14t7.5 -8q8 -6 16 -17t8 -28v-63h-205v63q0 17 8 28t16 17q4 4 6.5 7.5t3.5 12.5v501q-11 3 -19 10q-7 6 -12.5 16.5t-5.5 27.5v65h142q7 0 12 -3.5t10 -15.5
q9 -20 24 -49.5t32 -62t35 -65t32 -58.5t23.5 -42.5l9.5 -16.5q5 -7 10 -7.5t10 7.5q13 21 27 46q12 21 27 47t32 54q38 64 87 146q6 13 12.5 16.5t14.5 3.5h118v-65v0z" />
    <glyph glyph-name="N" unicode="N" horiz-adv-x="547" 
d="M519 748v-67q0 -16 -7.5 -26.5t-15.5 -16.5q-3 -2 -5.5 -5.5t-3.5 -10.5v-593q0 -18 -6.5 -23.5t-17.5 -5.5h-61q-28 0 -39 24q-3 6 -16 36.5t-31 72.5t-38 89.5t-37 88t-29 68t-12 28.5t-1 0t-1 -7v-269q0 -9 4 -13t9 -7q7 -5 14.5 -16t7.5 -28v-67h-201v68
q0 16 7.5 26.5t15.5 15.5q3 3 5.5 6t3.5 10v501q-10 3 -18 10q-7 6 -12.5 17t-5.5 28v66h139q12 0 21 -12t12 -22q2 -7 13 -34.5t27 -66t34.5 -82.5t34.5 -83t27.5 -68t14.5 -37q1 -2 1.5 0t0.5 5v269q0 9 -4 13.5t-9 7.5q-7 5 -14 15.5t-7 28.5v66h200z" />
    <glyph glyph-name="O" unicode="O" horiz-adv-x="485" 
d="M244 -7q-93 0 -147 41.5t-54 118.5v444q0 77 53.5 119t147.5 42q95 0 146.5 -42t51.5 -119v-444q0 -77 -52 -118.5t-146 -41.5zM303 585q0 18 -7 29t-16.5 17t-19.5 8.5t-16 2.5t-16 -2t-20 -7.5t-17.5 -15.5t-7.5 -27v-428q0 -15 6 -25t15 -16t20 -9t20 -3q21 0 40 12
t19 42v422z" />
    <glyph glyph-name="P" unicode="P" horiz-adv-x="482" 
d="M312 748q34 0 58.5 -15t40.5 -37.5t23.5 -49.5t7.5 -50v-135q0 -37 -9.5 -68t-29.5 -53.5t-51 -35t-74 -12.5h-61q-15 0 -15 -12v-151q0 -10 3 -14t7 -8q8 -6 16 -17t8 -28v-63h-205v63q0 17 8 28t16 17q4 3 7 7t3 13v491q0 8 -0.5 13t-6.5 9q-10 5 -20 17t-10 33v58h284
zM306 574q0 35 -17 46t-39 11h-23q-17 -1 -21 -6.5t-4 -12.5v-198q0 -6 3.5 -11.5t20.5 -6.5h23q33 0 45 20.5t12 55.5v102z" />
    <glyph glyph-name="Q" unicode="Q" horiz-adv-x="486" 
d="M443 -90q-42 0 -73.5 8t-54 18.5t-36.5 21.5t-21 17l-11 11t-17 7q-30 0 -62.5 9t-60.5 27.5t-46 47t-18 66.5v465q0 38 15 66.5t41.5 47t62.5 27.5t78 9t78.5 -9t63.5 -27.5t42.5 -47t15.5 -66.5v-465q0 -20 -4.5 -35.5t-11 -26.5t-15 -19.5t-16.5 -14.5
q-2 -2 -0.5 -4.5t3.5 -3.5q1 -1 2.5 -1t3.5 -1l4 -2q3 -1 9 -4.5t12.5 -9t11 -13.5t4.5 -18v-80zM302 595q0 10 -6.5 18t-16 14t-20 9t-19.5 3t-19.5 -3t-19.5 -8t-15 -13t-6 -18v-441q0 -13 6.5 -22t16 -14.5t20 -8t17.5 -2.5t17.5 3t20.5 8t17 13t7 19v443z" />
    <glyph glyph-name="R" unicode="R" horiz-adv-x="505" 
d="M442 105q7 -5 15 -15.5t8 -28.5v-64h-112q-13 0 -24 7.5t-19 18.5t-12.5 24t-4.5 24v175q0 18 -5.5 29t-13 17t-16.5 8t-16 2h-22q-17 -1 -21.5 -4t-4.5 -13v-159q0 -9 8.5 -16t13.5 -12q8 -8 10 -17t2 -27v-57h-200v54q0 17 2.5 29.5t10.5 17.5q5 4 10 12.5t5 16.5v478
q0 8 -1 18t-5 12q-8 5 -15 16t-7 31v63h248q75 0 113.5 -46.5t38.5 -120.5v-90q0 -32 -8 -58.5t-28 -43.5q-2 -1 -3 -5.5t4 -7.5q22 -17 29 -36.5t7 -56.5v-154q0 -9 4 -13t9 -8zM296 565q0 35 -9.5 49t-41.5 14h-41q-10 0 -10 -16v-180q0 -10 4 -12.5t18 -2.5h23
q26 0 41.5 9t15.5 44v95z" />
    <glyph glyph-name="m" unicode="m" horiz-adv-x="728" 
d="M681 112q8 -5 13.5 -16.5t5.5 -30.5v-65h-113q-24 0 -38 14.5t-14 41.5v244q0 38 -15.5 57t-39.5 15q-8 -2 -16 -5t-14 -7q-7 -4 -14 -10v-218q0 -9 3 -13t8 -7q8 -5 14 -16.5t6 -30.5v-65h-137q-16 0 -22.5 17t-6.5 39v251q0 20 -6.5 33t-15.5 20t-19.5 9.5t-17.5 2.5
q-18 -1 -30 -10q-6 -4 -11 -9v-220q0 -9 3 -13.5t8 -7.5q8 -5 15.5 -16.5t7.5 -30.5l-1 -65h-206v62q0 19 6 32t14 19q5 3 10 7t5 17v210q0 18 -4 24.5t-9 9.5q-5 4 -12 10t-7 14v95h127q8 0 12.5 -3t6.5 -7q3 -4 4 -9q11 6 25 11q12 5 29 8.5t38 3.5q38 0 67 -12t46 -32
q11 12 29 22q15 8 37 15t52 7q37 0 67.5 -9.5t52.5 -32t34.5 -60.5t12.5 -95v-175q0 -9 3 -13t7 -7z" />
    <glyph glyph-name="n" unicode="n" horiz-adv-x="483" 
d="M442 112q13 -9 13 -47v-65h-118q-21 0 -34.5 15.5t-13.5 41.5v260q0 17 -5 27.5t-12.5 15.5t-17.5 6t-20 0q-10 -2 -16.5 -5.5t-10.5 -7.5t-7 -9v-211q0 -9 2.5 -13t7.5 -8q8 -5 15.5 -16t7.5 -31l-1 -65h-204v66q0 19 7.5 30.5t15.5 16.5q5 3 7.5 6t3.5 13v211
q0 21 -3.5 27.5t-7.5 10.5q-8 5 -15.5 16t-7.5 28v75h141q8 0 12 -3.5t6 -7.5q3 -5 3 -11q10 7 24 13q12 5 29 9t38 4q37 0 64.5 -13t45.5 -36t27 -55t9 -70v-197q1 -9 5.5 -13.5t9.5 -7.5z" />
    <glyph glyph-name="o" unicode="o" horiz-adv-x="419" 
d="M210 504q36 0 69 -10t58 -29t39.5 -45t14.5 -58v-229q0 -33 -14.5 -58t-39 -42.5t-57.5 -26.5t-69 -9q-35 0 -68 9t-58.5 28t-41 47.5t-15.5 66.5v205q0 38 14.5 66.5t39.5 47t58 28t70 9.5zM210 117q7 0 14.5 1.5t14.5 5.5t11.5 11.5t4.5 19.5v197q0 12 -5 19
t-11.5 10.5t-14.5 5t-14 1.5t-13.5 -1.5t-14 -5.5t-11.5 -11t-5 -19v-197q0 -11 4.5 -18.5t11 -11.5t14 -5.5t14.5 -1.5z" />
    <glyph glyph-name="p" unicode="p" horiz-adv-x="451" 
d="M292 504q37 0 62 -13t40.5 -36t22 -55t6.5 -70v-158q0 -38 -8 -71t-25.5 -56.5t-46 -36t-69.5 -10.5q-16 1 -29.5 3.5t-23.5 4.5q-11 3 -21 6v-127q0 -10 3 -14t8 -7q8 -5 15.5 -16.5t7.5 -30.5v-69h-206v74q0 17 7.5 28t15.5 16q5 4 8 9t3 13v473q0 10 -3 14t-8 8
q-8 5 -15.5 16t-7.5 30v71h143q7 0 12 -3t9 -7t8 -9q4 5 29 14t63 9zM283 331q0 29 -16.5 41t-42.5 9q-6 -1 -10.5 -3.5t-7.5 -4.5q-4 -3 -6 -6v-235q0 -2 4 -5q2 -2 7 -4.5t13 -3.5q13 -2 24 1.5t19 11t12 17.5t4 20v162z" />
    <glyph glyph-name="q" unicode="q" horiz-adv-x="452" 
d="M28 327q0 38 7.5 70t24 55.5t42.5 36.5t63 13q38 0 65.5 -9.5t32.5 -14.5q2 6 6 11q3 4 8 7.5t13 3.5h134v-71q0 -19 -7.5 -30t-15.5 -16q-5 -4 -8 -8t-3 -14v-474q0 -8 3.5 -13t8.5 -9q8 -5 15 -16t7 -28v-74h-207v69q0 19 7.5 30.5t15.5 16.5q5 3 8 7t3 14v127
q-6 -3 -16 -6q-8 -2 -20 -4.5t-28 -3.5q-83 -5 -121 36.5t-38 118.5v175zM168 165q0 -20 12.5 -35.5t41.5 -10.5q8 1 13 4t9 7t7 9v219q-2 6 -6 10t-10 7.5t-15 5.5q-23 4 -37.5 -6.5t-14.5 -39.5v-170z" />
    <glyph glyph-name="r" unicode="r" horiz-adv-x="374" 
d="M351 392q0 -15 -10 -19.5t-21 -1.5q-16 4 -37 2t-39.5 -11t-31 -25.5t-12.5 -42.5v-157q0 -9 3 -13.5t8 -7.5q8 -5 15.5 -16.5t7.5 -30.5l-1 -69h-205v70q0 19 7.5 30.5t15.5 16.5q5 3 8 7.5t3 14.5v229q0 6 -3.5 10t-8.5 7q-8 6 -15 17t-7 28v70h148q24 0 24 -21v-20
q7 8 18 15q9 6 21.5 12t29.5 11q18 5 36.5 5t23.5 -1q9 -2 15.5 -6t6.5 -26v-77v0z" />
    <glyph glyph-name="s" unicode="s" horiz-adv-x="421" 
d="M211 388q-15 0 -27.5 -7.5t-12.5 -24.5q0 -15 16.5 -25t41 -20.5t53.5 -22.5t53.5 -30t41 -44t16.5 -64q0 -45 -15.5 -74.5t-41.5 -47.5t-60 -25.5t-71 -7.5q-86 0 -131.5 39t-45.5 104v55h78q53 0 53 -48q0 -18 11.5 -25t29.5 -7q25 0 34.5 12t9.5 29t-15.5 28
t-38.5 21.5t-50.5 23t-50.5 31t-38.5 45.5t-15.5 67q0 26 10.5 50.5t32 43t55 30t79.5 11.5q41 0 73.5 -11t55 -29.5t34 -43t11.5 -51.5v-58h-72q-27 0 -42 11t-15 32q0 17 -13 25t-33 8z" />
    <glyph glyph-name="S" unicode="S" horiz-adv-x="484" 
d="M191 524q0 -20 18.5 -36.5t46.5 -33t60 -34.5t60 -41t46.5 -52.5t18.5 -69.5v-115q0 -38 -17.5 -66.5t-45.5 -47t-63.5 -27.5t-72.5 -9t-73 9t-64 27.5t-45 47t-17 66.5v85h82q27 0 40.5 -16.5t13.5 -39.5v-20q0 -16 18.5 -28t44.5 -12t43.5 14.5t17.5 28.5v78
q0 33 -18.5 54.5t-46 38t-60 31.5t-60 36.5t-46 52t-18.5 77.5v84q0 40 15.5 68.5t41.5 47t60 27t71 8.5t71 -9.5t59.5 -28t40.5 -47t15 -66.5v-84h-75q-25 0 -42 15t-17 39v21q0 21 -16.5 32.5t-36.5 11.5q-21 0 -35.5 -12t-14.5 -27v-78z" />
    <glyph glyph-name="T" unicode="T" horiz-adv-x="492" 
d="M431 747q21 0 29.5 -7t8.5 -33v-70v-50h-58q-26 0 -39 24q-5 11 -9.5 15t-21.5 4h-13q-13 0 -13 -17l-2 -484q0 -10 4 -14t9 -8q7 -5 14 -15.5t7 -28.5v-64h-204v64q0 17 7.5 28t15.5 16q5 4 8 9t3 13v487q0 7 -6 10.5t-11 3.5h-10q-6 0 -14.5 -3t-14.5 -16
q-7 -14 -15.5 -19t-30.5 -5h-52v55v65q0 23 11 31.5t28 8.5h369v0z" />
    <glyph glyph-name="U" unicode="U" horiz-adv-x="508" 
d="M480 748v-72q0 -17 -8 -28t-16 -17q-4 -4 -6.5 -8t-3.5 -13v-467q0 -38 -16 -66.5t-42 -47.5t-60 -28t-71 -9t-72 9t-62.5 28t-44 47.5t-16.5 66.5v466q0 9 -3 13.5t-8 7.5q-8 5 -15.5 16.5t-7.5 30.5v71h202v-66q0 -17 -8 -31t-16 -20q-5 -4 -7.5 -8t-2.5 -13v-432
q0 -39 16.5 -54.5t44.5 -15.5t44.5 15.5t16.5 54.5v431q0 9 -4.5 16.5t-9.5 11.5q-8 5 -14 16t-6 30v65h196z" />
    <glyph glyph-name="V" unicode="V" horiz-adv-x="549" 
d="M517 748v-64q0 -17 -7.5 -28t-15.5 -16q-5 -4 -8.5 -9t-5.5 -13l-50 -286q-9 -54 -18 -105.5t-16 -92t-11.5 -65.5t-4.5 -26q-3 -18 -9.5 -30.5t-19.5 -12.5h-140q-26 0 -33 33l-112 585q-2 10 -4.5 14t-7.5 8q-8 5 -15 16t-7 28v64h201v-64q0 -18 -7 -28.5t-14 -15.5
q-9 -6 -9 -22l74 -473l71 473q0 9 -3.5 13.5t-8.5 8.5q-8 5 -15 15.5t-7 28.5v64h203z" />
    <glyph glyph-name="W" unicode="W" horiz-adv-x="836" 
d="M808 748v-64q0 -17 -7.5 -28t-15.5 -16q-5 -4 -8.5 -9t-5.5 -13q-17 -161 -29 -288q-6 -54 -11 -105.5t-9 -92t-6.5 -65l-2.5 -24.5q-2 -19 -9 -31t-20 -12h-147q-14 1 -21.5 9.5t-11.5 23.5l-88 424l-88 -424q-6 -33 -33 -33h-149q-25 0 -29 43q0 1 -2 26t-6 65.5
t-8.5 92t-9.5 105.5l-26 286q-2 8 -5.5 13t-8.5 9q-8 5 -15.5 16t-7.5 28v64h203v-64q0 -18 -7 -28.5t-15 -15.5q-5 -4 -8.5 -8.5t-3.5 -13.5l38 -473q33 157 59 282q11 53 22 104.5t19 93t13.5 68t6.5 29.5q1 6 8 10.5t17 8t20.5 5.5t17.5 2q23 0 44.5 -8t23.5 -18
q0 -3 5 -29t13 -66.5t18 -92t20 -105.5q24 -126 54 -284l43 473q0 9 -3.5 13.5t-8.5 8.5q-8 5 -15 15.5t-7 28.5v64h203z" />
    <glyph glyph-name="X" unicode="X" horiz-adv-x="506" 
d="M460 120q11 -5 14.5 -18t3.5 -35v-67h-23h-57q-25 0 -40 6.5t-26 35.5q0 1 -4 10t-9.5 23.5t-13 32.5t-14.5 36l-40 98l-18 -58l-18 -58q-1 -2 -1.5 -7.5t5.5 -10.5q8 -6 15.5 -16.5t7.5 -27.5v-64h-205v64q0 17 8.5 28t16.5 16q3 2 5.5 5.5t6.5 13.5l95 233q0 3 1 6
q0 2 0.5 4t0.5 4t-0.5 4t-0.5 4q-1 3 -1 6l-94 225q-3 10 -7 15.5t-18 9.5q-22 9 -22 53v57h30h64q23 0 37.5 -8t22.5 -33v-1q0 -1 10 -27.5t22 -61t23.5 -68t15.5 -48.5l54 121q1 4 2 8.5t-4 8.5q-8 6 -18.5 17t-10.5 28v64h198v-64q0 -18 -7 -29t-14 -16q-4 -2 -7.5 -5.5
t-7.5 -14.5l-4.5 -10t-12 -26.5t-16.5 -37t-19 -42.5q-23 -51 -51 -115q-1 -2 -1 -4q-1 -2 -1 -4v-3v-6q0 -2 1 -4l96 -225q3 -8 11 -13.5t19 -8.5z" />
    <glyph glyph-name="Y" unicode="Y" horiz-adv-x="504" 
d="M476 749v-64q0 -17 -7.5 -28t-14.5 -17q-4 -2 -10 -6t-8 -12q-1 -2 -6 -18t-13 -41.5t-18.5 -57.5t-20.5 -65q-25 -77 -55 -175v-135q0 -10 3 -14t8 -8q8 -5 15.5 -16t7.5 -30v-62h-203v63q0 17 8 28t16 17q4 3 6.5 7t3.5 13v137q-34 99 -61 177q-12 33 -23 65.5t-20 58
t-14.5 41.5t-5.5 18q-2 5 -6.5 9t-6.5 6q-8 6 -15.5 17t-7.5 28v64h192v-68q0 -18 -1.5 -27t-9.5 -14q-5 -3 -10 -7t-3 -13q0 -2 3 -12.5t6.5 -26t8.5 -34.5l10 -38q11 -46 26 -101l2 3q15 56 27 101q5 19 10 37.5t9 33.5t6.5 25.5t3.5 12.5q2 8 -3 12t-10 7q-7 5 -9 16
t-2 29v64h192z" />
    <glyph glyph-name="Z" unicode="Z" horiz-adv-x="430" 
d="M402 173v-148q0 -12 -6.5 -18t-17.5 -6h-325q-11 0 -18 7.5t-7 17.5v94q0 11 1 14t2 5q60 129 108 231q20 43 39.5 85t35.5 75.5t25.5 54.5t10.5 23q2 6 -2 10.5t-14 4.5h-68q-9 0 -15.5 -3t-6.5 -11v-34h-49q-26 0 -40.5 15.5t-14.5 38.5v95q0 24 22 24h66h236
q12 0 19.5 -7t7.5 -19v-93q0 -5 -0.5 -8.5t-1.5 -6.5q-1 -4 -1 -6q-56 -128 -101 -229q-19 -43 -37.5 -84.5t-33 -74.5t-24 -54t-9.5 -22q-2 -7 0 -14t10 -7h104q0 20 11 35t42 15h52z" />
    <glyph glyph-name="t" unicode="t" horiz-adv-x="346" 
d="M290 112q3 0 8 0.5t9.5 -1t7.5 -6.5t3 -14v-51q0 -19 -3 -25.5t-18 -12.5q-37 -8 -74.5 -6t-67.5 15.5t-49 40t-19 68.5v260h-59v57q0 38 13.5 51.5t45.5 13.5v82v44q0 40 22 60.5t48 28.5q31 10 70 9v-224h70v-52q0 -39 -20.5 -54.5t-49.5 -15.5v-231q0 -20 18.5 -29.5
t44.5 -7.5z" />
    <glyph glyph-name="u" unicode="u" horiz-adv-x="478" 
d="M431 124q8 -5 13.5 -16.5t5.5 -30.5v-77h-83q-18 0 -24 5.5t-11 14.5q-8 -6 -20 -10.5t-26 -7t-27.5 -3.5t-22.5 -1q-37 0 -69.5 9t-57 28t-38.5 47.5t-14 66.5v211q0 8 -3 13t-8 9q-8 5 -13 16t-5 28v74h130q15 0 25.5 -11t10.5 -30v-304q0 -17 12.5 -28t36.5 -11
q21 0 30 6.5t9 7.5v230q0 8 -3 13t-8 9q-8 5 -13 16t-5 28v74h129q17 0 28 -13t11 -24v-319q0 -9 3 -13t7 -7z" />
    <glyph glyph-name="v" unicode="v" horiz-adv-x="446" 
d="M423 500v-69q0 -19 -6 -30.5t-14 -16.5q-5 -3 -6.5 -7t-3.5 -13q-1 -7 -6 -28t-12 -51t-15.5 -65.5t-16.5 -70.5t-15 -65.5t-11 -50.5q-3 -14 -10.5 -23.5t-20.5 -9.5h-112q-20 0 -27.5 10.5t-12.5 30.5q-1 5 -5 21.5t-10 39.5t-13 51.5t-14 57.5q-17 68 -38 150
q-2 8 -4.5 12.5t-7.5 8.5q-8 5 -13.5 16t-5.5 28v74h121q15 0 22 -9.5t10 -28.5q0 -2 2 -16.5t6 -37t8 -51t9 -57.5q11 -69 24 -155q13 85 24 153q4 29 8.5 57t8.5 50.5t6.5 37.5t2.5 18q4 28 11.5 33.5t25.5 5.5h111z" />
    <glyph glyph-name="w" unicode="w" horiz-adv-x="681" 
d="M663 499v-66q0 -19 -5 -30t-13 -16q-5 -4 -7 -8t-4 -13q-1 -6 -4.5 -25t-9 -47t-11.5 -61.5t-12.5 -68t-13 -66.5t-11.5 -57q-6 -29 -17.5 -35t-33.5 -6h-110q-20 0 -30 9.5t-16 37.5l-24 164l-24 -164q-6 -26 -16.5 -36.5t-33.5 -10.5h-116q-4 0 -10 2t-12.5 7t-12 13
t-8.5 21q-2 6 -5 23t-7.5 40.5t-10 51.5t-10.5 57q-12 67 -28 148q-4 16 -12 21q-8 6 -12.5 17t-4.5 28v70h105q31 0 37 -35q2 -11 6 -31t8.5 -45.5t9.5 -54.5t10 -57q11 -67 25 -145l62 325q5 26 12.5 34.5t24.5 8.5h47q29 0 38 -38q1 -3 4 -18.5t7 -39.5t9.5 -53.5
t10.5 -59.5q12 -71 28 -160q15 85 27 155q5 30 10 59t9.5 53t7 40.5t3.5 21.5q4 28 14 34t34 6h96z" />
    <glyph glyph-name="x" unicode="x" horiz-adv-x="425" 
d="M380 120q17 -7 17 -35v-85h-13h-79q-17 0 -31.5 15t-22.5 32q-1 2 -8.5 17.5t-15.5 32.5q-11 20 -23 46q-1 1 -1 2l-2 2q-2 0 -2 -2l-1 -1l-12 -27q-4 -6 -1 -8q5 -4 10 -7.5t5 -15.5v-86h-172v86q0 12 2.5 17t7.5 9q2 2 7.5 4t7.5 8q18 31 33 56q13 21 24 39.5t13 20.5
q2 5 1.5 7.5t-0.5 4.5q0 1 -2 7l-2 6l-55 99q-4 10 -19 15q-16 6 -16 35v86h21h80q14 0 24.5 -11.5t17.5 -28.5l49 -124q1 1 3 4t8 11q11 15 9.5 21.5t-2.5 7.5q-5 4 -10 11t-5 18v90h167v-90q0 -12 -3 -18.5t-8 -10.5q-2 -2 -5 -4.5t-8 -9.5l-76 -112q-1 -1 -1 -3
q-1 -2 -1 -5t1 -4q0 -1 1 -2l66 -105q2 -5 8.5 -9t13.5 -6z" />
    <glyph glyph-name="y" unicode="y" horiz-adv-x="437" 
d="M414 500v-72q0 -19 -2.5 -25.5t-9.5 -16.5q-8 -10 -11.5 -15t-5.5 -16q-6 -27 -16.5 -78t-23 -112.5t-25.5 -126t-24 -118.5t-18.5 -90.5t-8.5 -40.5q-5 -19 -21.5 -30.5t-32.5 -11.5h-82h-22v87q0 14 7.5 23t15.5 12q19 2 26 4t10 11l28 116h-46q-16 0 -19 18
q-4 17 -11.5 47.5t-15.5 66t-16.5 72t-16 67.5t-12 52t-5.5 24q-5 25 -15 31q-7 6 -12.5 16.5t-5.5 28.5v77h105q32 0 38 -38q0 -2 2.5 -16.5t6.5 -37t9 -51t10 -57.5q12 -69 27 -154l27 153q5 29 10 57t9 50.5t7 37t3 17.5q2 14 5 22t7.5 11.5t12.5 4.5t20 1h92z" />
    <glyph glyph-name="z" unicode="z" horiz-adv-x="404" 
d="M376 159v-136q0 -8 -7 -15.5t-15 -7.5h-85h-67h-158q-8 0 -12 5.5t-4 11.5v97q0 7 2.5 15.5t13.5 21.5q3 4 18 22t35 42.5t43 52.5t42.5 52t32 40t13.5 18q4 10 -8 10h-71q-6 0 -7.5 -7t-1.5 -12v-22h-70q-17 0 -26.5 10t-9.5 25v93q0 25 22 25h45h248q18 0 18 -17v-112
q0 -5 -2.5 -10.5t-4.5 -10.5q-4 -5 -7 -11q-46 -58 -82 -105q-15 -20 -30 -39t-27 -34t-19.5 -24.5t-7.5 -10.5q-2 -5 1 -8.5t8 -3.5h16h4h49q0 14 8.5 29.5t24.5 15.5h78z" />
    <glyph glyph-name="D" unicode="D" horiz-adv-x="492" 
d="M285 747q78 0 121 -44t43 -119v-422q0 -75 -43 -119t-121 -44h-257v60q0 22 5.5 33.5t15.5 16.5q12 7 12 21v484q0 16 -13 23q-20 11 -20 46v64h257zM312 566q0 33 -14.5 48t-39.5 15h-45q-11 -1 -12.5 -7t-1.5 -12v-482q0 -5 1.5 -9t9.5 -5h40q32 0 47 10t15 33v409z
" />
    <glyph glyph-name="quotedbl" unicode="&#x22;" horiz-adv-x="363" 
d="M98 755q24 0 44 -2.5t20 -10.5l-10 -114q0 -8 -15 -11.5t-39 -3.5q-50 0 -50 14v1l-10 112q0 11 18.5 13t41.5 2zM261 755q24 0 44 -2.5t20 -10.5l-10 -114q0 -15 -51 -15q-24 0 -38 3t-14 11v1l-10 112q0 11 18 13t41 2z" />
    <glyph glyph-name="semicolon" unicode=";" horiz-adv-x="183" 
d="M94 226q23 0 42 -3.5t19 -9.5v-92v-20q0 -17 -2 -28.5t-7.5 -21.5t-15 -20.5t-24.5 -25.5q-9 -8 -12 -6.5t-9 6.5q-8 6 -7.5 9.5t10.5 13.5q15 15 21 29.5t4 25t-9.5 17t-19.5 6.5q-23 0 -37.5 3.5t-14.5 11.5v91q0 8 20 11t42 3zM94 500q24 0 42.5 -3.5t18.5 -10.5v-93
q0 -8 -18.5 -12.5t-42.5 -4.5t-45 3.5t-21 11.5v2v91q0 4 6 7.5t15.5 5t21.5 2.5t23 1z" />
    <glyph glyph-name="colon" unicode=":" horiz-adv-x="190" 
d="M162 486v-93q0 -4 -6.5 -6.5t-17 -4.5t-23 -3t-24.5 -1q-24 0 -42 2.5t-18 10.5v2v91q0 11 18.5 13.5t41.5 2.5q12 0 24.5 -1t23 -2.5t17 -4t6.5 -6.5zM159 212v-93q0 -8 -20.5 -12.5t-44.5 -4.5t-45 3.5t-21 11.5v2v92q0 4 6 7t15.5 5t21.5 2.5t23 0.5q24 0 44.5 -3.5
t20.5 -10.5z" />
    <glyph glyph-name="period" unicode="." horiz-adv-x="183" 
d="M155 102v-94q0 -8 -20 -12.5t-44 -4.5q-25 0 -44 4t-19 12v1v92q0 9 20 12.5t43 3.5q24 0 44 -4t20 -10z" />
    <glyph glyph-name="comma" unicode="," horiz-adv-x="179" 
d="M151 99v-92v-19q0 -17 -2 -28.5t-7.5 -22t-15 -21t-24.5 -25.5q-8 -8 -11.5 -6.5t-9.5 6.5q-8 6 -7.5 9.5t10.5 13.5q15 15 21 29.5t4.5 25.5t-9 17.5t-19.5 6.5q-23 0 -38 3t-15 11v91q0 8 20 11t43 3t41.5 -3t18.5 -10z" />
    <glyph glyph-name="hyphen" unicode="-" horiz-adv-x="245" 
d="M217 253q0 -3 -2 -3h-185q-2 0 -2 3v95q0 3 2 3h185q2 0 2 -3v-95z" />
    <glyph glyph-name="endash" unicode="&#x2013;" horiz-adv-x="350" 
d="M28 346q0 3 3 3h289q2 0 2 -3v-95q0 -3 -2 -3h-289q-3 0 -3 3v95z" />
    <glyph glyph-name="emdash" unicode="&#x2014;" horiz-adv-x="529" 
d="M501 250q0 -3 -3 -3h-467q-3 0 -3 3v95q0 3 3 3h467q3 0 3 -3v-95z" />
    <glyph glyph-name="asterisk" unicode="*" horiz-adv-x="257" 
d="M195 633q-4 0 -2 -3l21 -31q1 -2 -1 -4l-62 -40q-2 -2 -4 0l-15 23q-2 3 -3 0l-15 -24q-2 -3 -4 -1l-63 39q-2 2 0 4l22 35q1 2 -1 4l-38 14q-2 2 -1 4l26 69q2 2 4 1l30 -11q3 -2 3 1l2 32q0 3 3 3h70q3 0 3 -3l1 -33q0 -2 3 -2l33 8q2 1 4 -2l18 -71q0 -3 -3 -4z" />
    <glyph glyph-name="equal" unicode="=" horiz-adv-x="351" 
d="M320 420q3 0 3 -3v-95q0 -2 -3 -2h-289q-3 0 -3 2v95q0 3 3 3h289zM28 280q0 2 3 2h289q3 0 3 -2v-95q0 -3 -3 -3h-289q-3 0 -3 3v95z" />
    <glyph glyph-name="plus" unicode="+" horiz-adv-x="350" 
d="M322 252q0 -2 -2 -2h-92q-3 0 -3 -3v-92q0 -2 -2 -2h-95q-3 0 -3 2v92q0 3 -3 3h-91q-3 0 -3 2v95q0 3 3 3h91q3 0 3 3v91q0 3 3 3h95q2 0 2 -3v-91q0 -3 3 -3h92q2 0 2 -3v-95z" />
    <glyph glyph-name="multiply" unicode="&#xd7;" 
d="M238 164q-2 -4 -4 0l-65 64q-2 2 -4 0l-65 -64q-2 -4 -4 0l-67 67q-2 2 0 4l65 64q2 2 0 4l-65 65q-2 2 0 4l67 67q2 2 4 0l65 -64q2 -4 4 0l65 64q2 2 4 0l67 -67q2 -2 0 -4l-65 -65q-2 -2 0 -4l65 -64q2 -2 0 -4z" />
    <glyph glyph-name="ring" unicode="&#x2da;" horiz-adv-x="236" 
d="M116 690q36 0 51 -21.5t15 -47.5v-7v-3v-2q-1 -31 -16 -50t-50 -19q-34 0 -48.5 18t-16.5 51v4v3v3q2 35 16 53t49 18zM145 612v8q0 41 -29 41t-29 -39v-6v-3v-5q0 -41 29 -41q14 0 21.5 9.5t7.5 32.5v3z" />
    <glyph glyph-name="caron" unicode="&#x2c7;" horiz-adv-x="288" 
d="M142 649q2 -2 4 0l87 66h2l24 -24q3 -3 0 -3l-76 -76q-1 0 -2 -1h-1l-1 -2l-33 -33q-1 0 -2 -1l-2 1l-33 33q-1 1 -1 2h-1l-1 1l-77 76q-3 0 0 3l24 24h2z" />
    <glyph glyph-name="degree" unicode="&#xb0;" horiz-adv-x="236" 
d="M118 725q24 0 41.5 -8t28 -21.5t15.5 -31t5 -35.5v-9v-4v-3q-1 -43 -21.5 -69.5t-68.5 -26.5t-67.5 25t-22.5 71v6v3v5q2 48 22 73t68 25zM157 617v11q0 57 -39 57q-40 0 -40 -54v-9v-3v-8q0 -56 40 -56q18 0 28.5 13.5t10.5 44.5v4z" />
    <glyph glyph-name="dieresis" unicode="&#xa8;" horiz-adv-x="356" 
d="M141 628q0 -38 -10 -38h-50q-13 0 -13 38q0 36 11 36h2h49q7 0 9 -9.5t2 -26.5zM288 628q0 -38 -9 -38h-52q-11 0 -11 38q0 36 10 36h1l50 1q8 0 9.5 -10t1.5 -27z" />
    <glyph glyph-name="minus" unicode="&#x2212;" horiz-adv-x="350" 
d="M28 346q0 3 3 3h289q2 0 2 -3v-95q0 -3 -2 -3h-289q-3 0 -3 3v95z" />
    <glyph glyph-name="guilsinglright" unicode="&#x203a;" horiz-adv-x="327" 
d="M169 298q2 2 0 4l-130 151q-1 1 0 4l50 50q2 2 4 0l204 -205q1 -1 2 -1v-1v-1l-2 -1l-204 -204q-2 -2 -4 0l-50 50q-2 2 0 4z" />
    <glyph glyph-name="circumflex" unicode="&#x2c6;" horiz-adv-x="288" 
d="M146 650q-2 1 -3 0l-76 -52q-2 -2 -2 0l-26 25q-3 0 0 3l104 104h2h1l104 -104q3 -3 0 -3l-26 -25q-1 -1 -2 0z" />
    <glyph glyph-name="grave" unicode="`" horiz-adv-x="245" 
d="M167 568q0 -2 -3 0l-121 90q-3 3 0 3l40 46q-1 1 0 1t3 -1l103 -108q2 0 2 -3z" />
    <glyph glyph-name="underscore" unicode="_" horiz-adv-x="531" 
d="M503 3q0 -3 -3 -3h-469q-3 0 -3 3v95q0 3 3 3h469q3 0 3 -3v-95z" />
    <glyph glyph-name="asciicircum" unicode="^" horiz-adv-x="346" 
d="M174 669q-2 2 -2 0l-82 -82h-3l-35 36q-2 0 0 2l120 120h1h1l120 -120v-2l-35 -36h-3z" />
    <glyph glyph-name="acute" unicode="&#xb4;" horiz-adv-x="251" 
d="M204 670q0 -2 -1 -3l-118 -87q-3 -3 -3 0l-24 27q-3 0 0 3l104 105q0 3 3 0z" />
    <glyph glyph-name="tilde" unicode="&#x2dc;" horiz-adv-x="409" 
d="M304 621q-8 -6 -19 -11t-29 -5q-25 0 -50 7t-48 7q-15 0 -24.5 -3.5t-18.5 -7.5q-11 -3 -11 8v32q0 9 2.5 13.5t7.5 8.5q8 5 17 9.5t32 4.5q17 0 29 -2t22 -5t19 -5t20 -2q16 0 26 2.5t21 7.5q5 3 8 1t3 -6v-38q0 -11 -7 -16z" />
    <glyph glyph-name="asciitilde" unicode="~" horiz-adv-x="324" 
d="M287 382q-12 -8 -25.5 -14.5t-37.5 -6.5q-32 0 -64 8.5t-60 8.5q-20 0 -32.5 -4t-24.5 -8q-6 -2 -10.5 0t-4.5 8v40q0 11 4 16.5t10 9.5q6 3 11 6t11.5 5.5t16 4.5t23.5 2q23 0 38.5 -3t28 -6t24.5 -6t27 -3q19 0 32 3.5t28 9.5q5 4 9.5 0.5t4.5 -8.5v-45q0 -13 -9 -18z
" />
    <glyph glyph-name="Adieresis" unicode="&#xc4;" horiz-adv-x="505" 
d="M472 114q8 -5 15 -16t7 -28v-70h-200v58q0 18 7 33t15 20q5 4 8.5 8t3.5 13q-1 8 -2 15q-1 6 -2.5 12.5t-2.5 11.5q-2 8 -7 10.5t-13 2.5h-94q-9 0 -12.5 -1.5t-5.5 -11.5q-1 -5 -2 -11.5t-3 -12.5q-2 -7 -3 -15q0 -9 2 -13t7 -8q8 -5 15 -20.5t7 -33.5v-57h-197v70
q0 17 7.5 28t14.5 16q5 4 9 9t6 13q28 133 51 239q10 45 19 88t16.5 77t12 55t4.5 22q2 8 2 14.5t-5 8.5q-11 5 -18 16.5t-7 34.5v57h155q23 0 36.5 -14t16.5 -31q0 -4 5.5 -30.5t14.5 -67t20 -91t22 -102.5q26 -122 60 -276q3 -13 15 -22zM290 299q7 0 9 1.5t1 7.5
q0 2 -3.5 21t-8 46t-10 58.5t-10 58.5t-8 45t-3.5 19q0 4 -2.5 3.5t-3.5 -2.5q0 -1 -3 -19.5t-8 -45.5t-10.5 -58t-10.5 -58.5t-8.5 -46.5t-3.5 -21q-1 -6 1 -7.5t9 -1.5h73zM192 807q0 -38 -10 -38h-50q-13 0 -13 38q0 36 11 36h2h49q7 0 9 -9.5t2 -26.5zM339 807
q0 -38 -9 -38h-52q-11 0 -11 38q0 36 10 36h1l50 1q8 0 9.5 -10t1.5 -27z" />
    <glyph glyph-name="Egrave" unicode="&#xc8;" horiz-adv-x="433" 
d="M211 632q-5 0 -9.5 -4.5t-4.5 -9.5v-166q0 -7 4.5 -10.5t10.5 -3.5h126q5 0 10.5 -3.5t5.5 -11.5v-80q0 -14 -15 -14h-127q-15 0 -15 -13v-187q0 -6 5 -10t11 -4h80q9 0 14 10q2 5 5 12t8.5 13t13.5 10.5t19 4.5h62v-140q0 -11 -11 -18t-22 -7h-65h-229h-60v60
q0 22 6 33.5t16 16.5q12 7 12 21v486q0 16 -13 23q-10 5 -15.5 15.5t-5.5 30.5v63h358q12 0 20.5 -9t8.5 -17v-132h-59q-20 0 -32 10t-17 19q-7 12 -21 12h-75v0zM231 776q0 -2 -3 0l-121 90q-3 3 0 3l40 46q-1 1 0 1t3 -1l103 -108q2 0 2 -3z" />
    <glyph glyph-name="Eacute" unicode="&#xc9;" horiz-adv-x="433" 
d="M211 632q-5 0 -9.5 -4.5t-4.5 -9.5v-166q0 -7 4.5 -10.5t10.5 -3.5h126q5 0 10.5 -3.5t5.5 -11.5v-80q0 -14 -15 -14h-127q-15 0 -15 -13v-187q0 -6 5 -10t11 -4h80q9 0 14 10q2 5 5 12t8.5 13t13.5 10.5t19 4.5h62v-140q0 -11 -11 -18t-22 -7h-65h-229h-60v60
q0 22 6 33.5t16 16.5q12 7 12 21v486q0 16 -13 23q-10 5 -15.5 15.5t-5.5 30.5v63h358q12 0 20.5 -9t8.5 -17v-132h-59q-20 0 -32 10t-17 19q-7 12 -21 12h-75v0zM304 855q0 -2 -1 -3l-118 -87q-3 -3 -3 0l-24 27q-3 0 0 3l104 105q0 3 3 0z" />
    <glyph glyph-name="Ecircumflex" unicode="&#xca;" horiz-adv-x="433" 
d="M211 632q-5 0 -9.5 -4.5t-4.5 -9.5v-166q0 -7 4.5 -10.5t10.5 -3.5h126q5 0 10.5 -3.5t5.5 -11.5v-80q0 -14 -15 -14h-127q-15 0 -15 -13v-187q0 -6 5 -10t11 -4h80q9 0 14 10q2 5 5 12t8.5 13t13.5 10.5t19 4.5h62v-140q0 -11 -11 -18t-22 -7h-65h-229h-60v60
q0 22 6 33.5t16 16.5q12 7 12 21v486q0 16 -13 23q-10 5 -15.5 15.5t-5.5 30.5v63h358q12 0 20.5 -9t8.5 -17v-132h-59q-20 0 -32 10t-17 19q-7 12 -21 12h-75v0zM216 819q-2 1 -3 0l-76 -52q-2 -2 -2 0l-26 25q-3 0 0 3l104 104h2h1l104 -104q3 -3 0 -3l-26 -25q-1 -1 -2 0
z" />
    <glyph glyph-name="Edieresis" unicode="&#xcb;" horiz-adv-x="433" 
d="M211 632q-5 0 -9.5 -4.5t-4.5 -9.5v-166q0 -7 4.5 -10.5t10.5 -3.5h126q5 0 10.5 -3.5t5.5 -11.5v-80q0 -14 -15 -14h-127q-15 0 -15 -13v-187q0 -6 5 -10t11 -4h80q9 0 14 10q2 5 5 12t8.5 13t13.5 10.5t19 4.5h62v-140q0 -11 -11 -18t-22 -7h-65h-229h-60v60
q0 22 6 33.5t16 16.5q12 7 12 21v486q0 16 -13 23q-10 5 -15.5 15.5t-5.5 30.5v63h358q12 0 20.5 -9t8.5 -17v-132h-59q-20 0 -32 10t-17 19q-7 12 -21 12h-75v0zM176 811q0 -38 -10 -38h-50q-13 0 -13 38q0 36 11 36h2h49q7 0 9 -9.5t2 -26.5zM323 811q0 -38 -9 -38h-52
q-11 0 -11 38q0 36 10 36h1l50 1q8 0 9.5 -10t1.5 -27z" />
    <glyph glyph-name="Igrave" unicode="&#xcc;" horiz-adv-x="261" 
d="M199 130q0 -11 3 -15t7 -7q8 -6 16 -17t8 -28v-63h-205v63q0 17 8 28t16 17q5 3 7.5 7t2.5 15v487v1q0 10 -2.5 14t-7.5 8q-8 6 -16 17t-8 28v63h205v-63q0 -17 -8 -28t-16 -17q-4 -4 -7 -8t-3 -14v-1v-487v0zM163 774q0 -2 -3 0l-121 90q-3 3 0 3l40 46q-1 1 0 1t3 -1
l103 -108q2 0 2 -3z" />
    <glyph glyph-name="Iacute" unicode="&#xcd;" horiz-adv-x="261" 
d="M199 130q0 -11 3 -15t7 -7q8 -6 16 -17t8 -28v-63h-205v63q0 17 8 28t16 17q5 3 7.5 7t2.5 15v487v1q0 10 -2.5 14t-7.5 8q-8 6 -16 17t-8 28v63h205v-63q0 -17 -8 -28t-16 -17q-4 -4 -7 -8t-3 -14v-1v-487v0zM210 851q0 -2 -1 -3l-118 -87q-3 -3 -3 0l-24 27q-3 0 0 3
l104 105q0 3 3 0z" />
    <glyph glyph-name="Icircumflex" unicode="&#xce;" horiz-adv-x="270" 
d="M199 130q0 -11 3 -15t7 -7q8 -6 16 -17t8 -28v-63h-205v63q0 17 8 28t16 17q5 3 7.5 7t2.5 15v487v1q0 10 -2.5 14t-7.5 8q-8 6 -16 17t-8 28v63h205v-63q0 -17 -8 -28t-16 -17q-4 -4 -7 -8t-3 -14v-1v-487v0zM138 817q-2 1 -3 0l-76 -52q-2 -2 -2 0l-26 25q-3 0 0 3
l104 104h2h1l104 -104q3 -3 0 -3l-26 -25q-1 -1 -2 0z" />
    <glyph glyph-name="Idieresis" unicode="&#xcf;" horiz-adv-x="278" 
d="M216 130q0 -11 3 -15t7 -7q8 -6 16 -17t8 -28v-63h-205v63q0 17 8 28t16 17q5 3 7.5 7t2.5 15v487v1q0 10 -2.5 14t-7.5 8q-8 6 -16 17t-8 28v63h205v-63q0 -17 -8 -28t-16 -17q-4 -4 -7 -8t-3 -14v-1v-487v0zM102 802q0 -38 -10 -38h-50q-13 0 -13 38q0 36 11 36h2h49
q7 0 9 -9.5t2 -26.5zM249 802q0 -38 -9 -38h-52q-11 0 -11 38q0 36 10 36h1l50 1q8 0 9.5 -10t1.5 -27z" />
    <glyph glyph-name="Ntilde" unicode="&#xd1;" horiz-adv-x="537" 
d="M519 748v-67q0 -16 -7.5 -26.5t-15.5 -16.5q-3 -2 -5.5 -5.5t-3.5 -10.5v-593q0 -18 -6.5 -23.5t-17.5 -5.5h-61q-28 0 -39 24q-3 6 -16 36.5t-31 72.5t-38 89.5t-37 88t-29 68t-12 28.5t-1 0t-1 -7v-269q0 -9 4 -13t9 -7q7 -5 14.5 -16t7.5 -28v-67h-201v68
q0 16 7.5 26.5t15.5 15.5q3 3 5.5 6t3.5 10v501q-10 3 -18 10q-7 6 -12.5 17t-5.5 28v66h139q12 0 21 -12t12 -22q2 -7 13 -34.5t27 -66t34.5 -82.5t34.5 -83t27.5 -68t14.5 -37q1 -2 1.5 0t0.5 5v269q0 9 -4 13.5t-9 7.5q-7 5 -14 15.5t-7 28.5v66h200zM352 795
q-8 -6 -19 -11t-29 -5q-25 0 -50 7t-48 7q-15 0 -24.5 -3.5t-18.5 -7.5q-11 -3 -11 8v32q0 9 2.5 13.5t7.5 8.5q8 5 17 9.5t32 4.5q17 0 29 -2t22 -5t19 -5t20 -2q16 0 26 2.5t21 7.5q5 3 8 1t3 -6v-38q0 -11 -7 -16z" />
    <glyph glyph-name="Ograve" unicode="&#xd2;" horiz-adv-x="475" 
d="M240 -7q-93 0 -147 41.5t-54 118.5v444q0 77 53.5 119t147.5 42q95 0 146.5 -42t51.5 -119v-444q0 -77 -52 -118.5t-146 -41.5zM299 585q0 18 -7 29t-16.5 17t-19.5 8.5t-16 2.5t-16 -2t-20 -7.5t-17.5 -15.5t-7.5 -27v-428q0 -15 6 -25t15 -16t20 -9t20 -3q21 0 40 12
t19 42v422zM271 781q0 -2 -3 0l-121 90q-3 3 0 3l40 46q-1 1 0 1t3 -1l103 -108q2 0 2 -3z" />
    <glyph glyph-name="Ocircumflex" unicode="&#xd4;" horiz-adv-x="475" 
d="M240 -7q-93 0 -147 41.5t-54 118.5v444q0 77 53.5 119t147.5 42q95 0 146.5 -42t51.5 -119v-444q0 -77 -52 -118.5t-146 -41.5zM299 585q0 18 -7 29t-16.5 17t-19.5 8.5t-16 2.5t-16 -2t-20 -7.5t-17.5 -15.5t-7.5 -27v-428q0 -15 6 -25t15 -16t20 -9t20 -3q21 0 40 12
t19 42v422zM240 824q-2 1 -3 0l-76 -52q-2 -2 -2 0l-26 25q-3 0 0 3l104 104h2h1l104 -104q3 -3 0 -3l-26 -25q-1 -1 -2 0z" />
    <glyph glyph-name="Oacute" unicode="&#xd3;" horiz-adv-x="475" 
d="M240 -7q-93 0 -147 41.5t-54 118.5v444q0 77 53.5 119t147.5 42q95 0 146.5 -42t51.5 -119v-444q0 -77 -52 -118.5t-146 -41.5zM299 585q0 18 -7 29t-16.5 17t-19.5 8.5t-16 2.5t-16 -2t-20 -7.5t-17.5 -15.5t-7.5 -27v-428q0 -15 6 -25t15 -16t20 -9t20 -3q21 0 40 12
t19 42v422zM316 866q0 -2 -1 -3l-118 -87q-3 -3 -3 0l-24 27q-3 0 0 3l104 105q0 3 3 0z" />
    <glyph glyph-name="Odieresis" unicode="&#xd6;" horiz-adv-x="475" 
d="M240 -7q-93 0 -147 41.5t-54 118.5v444q0 77 53.5 119t147.5 42q95 0 146.5 -42t51.5 -119v-444q0 -77 -52 -118.5t-146 -41.5zM299 585q0 18 -7 29t-16.5 17t-19.5 8.5t-16 2.5t-16 -2t-20 -7.5t-17.5 -15.5t-7.5 -27v-428q0 -15 6 -25t15 -16t20 -9t20 -3q21 0 40 12
t19 42v422zM202 823q0 -38 -10 -38h-50q-13 0 -13 38q0 36 11 36h2h49q7 0 9 -9.5t2 -26.5zM349 823q0 -38 -9 -38h-52q-11 0 -11 38q0 36 10 36h1l50 1q8 0 9.5 -10t1.5 -27z" />
    <glyph glyph-name="Otilde" unicode="&#xd5;" horiz-adv-x="475" 
d="M240 -7q-93 0 -147 41.5t-54 118.5v444q0 77 53.5 119t147.5 42q95 0 146.5 -42t51.5 -119v-444q0 -77 -52 -118.5t-146 -41.5zM299 585q0 18 -7 29t-16.5 17t-19.5 8.5t-16 2.5t-16 -2t-20 -7.5t-17.5 -15.5t-7.5 -27v-428q0 -15 6 -25t15 -16t20 -9t20 -3q21 0 40 12
t19 42v422zM340 804q-8 -6 -19 -11t-29 -5q-25 0 -50 7t-48 7q-15 0 -24.5 -3.5t-18.5 -7.5q-11 -3 -11 8v32q0 9 2.5 13.5t7.5 8.5q8 5 17 9.5t32 4.5q17 0 29 -2t22 -5t19 -5t20 -2q16 0 26 2.5t21 7.5q5 3 8 1t3 -6v-38q0 -11 -7 -16z" />
    <glyph glyph-name="Ugrave" unicode="&#xd9;" horiz-adv-x="518" 
d="M485 748v-72q0 -17 -8 -28t-16 -17q-4 -4 -6.5 -8t-3.5 -13v-467q0 -38 -16 -66.5t-42 -47.5t-60 -28t-71 -9t-72 9t-62.5 28t-44 47.5t-16.5 66.5v466q0 9 -3 13.5t-8 7.5q-8 5 -15.5 16.5t-7.5 30.5v71h202v-66q0 -17 -8 -31t-16 -20q-5 -4 -7.5 -8t-2.5 -13v-432
q0 -39 16.5 -54.5t44.5 -15.5t44.5 15.5t16.5 54.5v431q0 9 -4.5 16.5t-9.5 11.5q-8 5 -14 16t-6 30v65h196zM313 778q0 -2 -3 0l-121 90q-3 3 0 3l40 46q-1 1 0 1t3 -1l103 -108q2 0 2 -3z" />
    <glyph glyph-name="Uacute" unicode="&#xda;" horiz-adv-x="518" 
d="M485 748v-72q0 -17 -8 -28t-16 -17q-4 -4 -6.5 -8t-3.5 -13v-467q0 -38 -16 -66.5t-42 -47.5t-60 -28t-71 -9t-72 9t-62.5 28t-44 47.5t-16.5 66.5v466q0 9 -3 13.5t-8 7.5q-8 5 -15.5 16.5t-7.5 30.5v71h202v-66q0 -17 -8 -31t-16 -20q-5 -4 -7.5 -8t-2.5 -13v-432
q0 -39 16.5 -54.5t44.5 -15.5t44.5 15.5t16.5 54.5v431q0 9 -4.5 16.5t-9.5 11.5q-8 5 -14 16t-6 30v65h196zM340 857q0 -2 -1 -3l-118 -87q-3 -3 -3 0l-24 27q-3 0 0 3l104 105q0 3 3 0z" />
    <glyph glyph-name="Ucircumflex" unicode="&#xdb;" horiz-adv-x="518" 
d="M485 748v-72q0 -17 -8 -28t-16 -17q-4 -4 -6.5 -8t-3.5 -13v-467q0 -38 -16 -66.5t-42 -47.5t-60 -28t-71 -9t-72 9t-62.5 28t-44 47.5t-16.5 66.5v466q0 9 -3 13.5t-8 7.5q-8 5 -15.5 16.5t-7.5 30.5v71h202v-66q0 -17 -8 -31t-16 -20q-5 -4 -7.5 -8t-2.5 -13v-432
q0 -39 16.5 -54.5t44.5 -15.5t44.5 15.5t16.5 54.5v431q0 9 -4.5 16.5t-9.5 11.5q-8 5 -14 16t-6 30v65h196zM269 826q-2 1 -3 0l-76 -52q-2 -2 -2 0l-26 25q-3 0 0 3l104 104h2h1l104 -104q3 -3 0 -3l-26 -25q-1 -1 -2 0z" />
    <glyph glyph-name="Udieresis" unicode="&#xdc;" horiz-adv-x="518" 
d="M485 748v-72q0 -17 -8 -28t-16 -17q-4 -4 -6.5 -8t-3.5 -13v-467q0 -38 -16 -66.5t-42 -47.5t-60 -28t-71 -9t-72 9t-62.5 28t-44 47.5t-16.5 66.5v466q0 9 -3 13.5t-8 7.5q-8 5 -15.5 16.5t-7.5 30.5v71h202v-66q0 -17 -8 -31t-16 -20q-5 -4 -7.5 -8t-2.5 -13v-432
q0 -39 16.5 -54.5t44.5 -15.5t44.5 15.5t16.5 54.5v431q0 9 -4.5 16.5t-9.5 11.5q-8 5 -14 16t-6 30v65h196zM224 808q0 -38 -10 -38h-50q-13 0 -13 38q0 36 11 36h2h49q7 0 9 -9.5t2 -26.5zM371 808q0 -38 -9 -38h-52q-11 0 -11 38q0 36 10 36h1l50 1q8 0 9.5 -10t1.5 -27z
" />
    <glyph glyph-name="Yacute" unicode="&#xdd;" horiz-adv-x="524" 
d="M486 749v-64q0 -17 -7.5 -28t-14.5 -17q-4 -2 -10 -6t-8 -12q-1 -2 -6 -18t-13 -41.5t-18.5 -57.5t-20.5 -65q-25 -77 -55 -175v-135q0 -10 3 -14t8 -8q8 -5 15.5 -16t7.5 -30v-62h-203v63q0 17 8 28t16 17q4 3 6.5 7t3.5 13v137q-34 99 -61 177q-12 33 -23 65.5t-20 58
t-14.5 41.5t-5.5 18q-2 5 -6.5 9t-6.5 6q-8 6 -15.5 17t-7.5 28v64h192v-68q0 -18 -1.5 -27t-9.5 -14q-5 -3 -10 -7t-3 -13q0 -2 3 -12.5t6.5 -26t8.5 -34.5l10 -38q11 -46 26 -101l2 3q15 56 27 101q5 19 10 37.5t9 33.5t6.5 25.5t3.5 12.5q2 8 -3 12t-10 7q-7 5 -9 16
t-2 29v64h192zM340 855q0 -2 -1 -3l-118 -87q-3 -3 -3 0l-24 27q-3 0 0 3l104 105q0 3 3 0z" />
    <glyph glyph-name="agrave" unicode="&#xe0;" horiz-adv-x="437" 
d="M399 102q8 -5 13 -19.5t5 -33.5v-49h-117q-12 0 -19.5 7t-9.5 15q-14 -12 -33 -19.5t-48 -7.5q-49 0 -80.5 13t-49.5 35.5t-25 52t-7 61.5v13q0 40 14 65t37.5 40t54.5 22.5t66 13.5q12 2 21 4.5t15 5.5q7 4 12 7v33q0 11 -9 19t-25 8q-14 0 -26.5 -6t-12.5 -18
q0 -9 -6.5 -11.5t-21.5 -2.5h-108v27q0 25 11.5 48t34 41t55 29t75.5 11t75.5 -11.5t54 -31t32.5 -44t11 -49.5l-1 -246q0 -8 4.5 -13.5t8.5 -8.5h-1zM214 109q10 1 16 4t11 6q4 4 8 7v118q-5 -2 -9 -4t-9.5 -3.5t-10.5 -3.5q-12 -4 -21.5 -7.5t-16.5 -10.5t-11 -19t-4 -31
v-7q0 -27 14.5 -39t32.5 -10zM239 547q0 -2 -3 0l-121 90q-3 3 0 3l40 46q-1 1 0 1t3 -1l103 -108q2 0 2 -3z" />
    <glyph glyph-name="aacute" unicode="&#xe1;" horiz-adv-x="437" 
d="M398 102q8 -5 13 -19.5t5 -33.5v-49h-117q-12 0 -19.5 7t-9.5 15q-14 -12 -33 -19.5t-48 -7.5q-49 0 -80.5 13t-49.5 35.5t-25 52t-7 61.5v13q0 40 14 65t37.5 40t54.5 22.5t66 13.5q12 2 21 4.5t15 5.5q7 4 12 7v33q0 11 -9 19t-25 8q-14 0 -26.5 -6t-12.5 -18
q0 -9 -6.5 -11.5t-21.5 -2.5h-108v27q0 25 11.5 48t34 41t55 29t75.5 11t75.5 -11.5t54 -31t32.5 -44t11 -49.5l-1 -246q0 -8 4.5 -13.5t8.5 -8.5h-1zM213 109q10 1 16 4t11 6q4 4 8 7v118q-5 -2 -9 -4t-9.5 -3.5t-10.5 -3.5q-12 -4 -21.5 -7.5t-16.5 -10.5t-11 -19t-4 -31
v-7q0 -27 14.5 -39t32.5 -10zM284 610q0 -2 -1 -3l-118 -87q-3 -3 -3 0l-24 27q-3 0 0 3l104 105q0 3 3 0z" />
    <glyph glyph-name="acircumflex" unicode="&#xe2;" horiz-adv-x="438" 
d="M400 102q8 -5 13 -19.5t5 -33.5v-49h-117q-12 0 -19.5 7t-9.5 15q-14 -12 -33 -19.5t-48 -7.5q-49 0 -80.5 13t-49.5 35.5t-25 52t-7 61.5v13q0 40 14 65t37.5 40t54.5 22.5t66 13.5q12 2 21 4.5t15 5.5q7 4 12 7v33q0 11 -9 19t-25 8q-14 0 -26.5 -6t-12.5 -18
q0 -9 -6.5 -11.5t-21.5 -2.5h-108v27q0 25 11.5 48t34 41t55 29t75.5 11t75.5 -11.5t54 -31t32.5 -44t11 -49.5l-1 -246q0 -8 4.5 -13.5t8.5 -8.5h-1zM215 109q10 1 16 4t11 6q4 4 8 7v118q-5 -2 -9 -4t-9.5 -3.5t-10.5 -3.5q-12 -4 -21.5 -7.5t-16.5 -10.5t-11 -19t-4 -31
v-7q0 -27 14.5 -39t32.5 -10zM213 561q-2 1 -3 0l-76 -52q-2 -2 -2 0l-26 25q-3 0 0 3l104 104h2h1l104 -104q3 -3 0 -3l-26 -25q-1 -1 -2 0z" />
    <glyph glyph-name="atilde" unicode="&#xe3;" horiz-adv-x="441" 
d="M402 102q8 -5 13 -19.5t5 -33.5v-49h-117q-12 0 -19.5 7t-9.5 15q-14 -12 -33 -19.5t-48 -7.5q-49 0 -80.5 13t-49.5 35.5t-25 52t-7 61.5v13q0 40 14 65t37.5 40t54.5 22.5t66 13.5q12 2 21 4.5t15 5.5q7 4 12 7v33q0 11 -9 19t-25 8q-14 0 -26.5 -6t-12.5 -18
q0 -9 -6.5 -11.5t-21.5 -2.5h-108v27q0 25 11.5 48t34 41t55 29t75.5 11t75.5 -11.5t54 -31t32.5 -44t11 -49.5l-1 -246q0 -8 4.5 -13.5t8.5 -8.5h-1zM217 109q10 1 16 4t11 6q4 4 8 7v118q-5 -2 -9 -4t-9.5 -3.5t-10.5 -3.5q-12 -4 -21.5 -7.5t-16.5 -10.5t-11 -19t-4 -31
v-7q0 -27 14.5 -39t32.5 -10zM314 548q-8 -6 -19 -11t-29 -5q-25 0 -50 7t-48 7q-15 0 -24.5 -3.5t-18.5 -7.5q-11 -3 -11 8v32q0 9 2.5 13.5t7.5 8.5q8 5 17 9.5t32 4.5q17 0 29 -2t22 -5t19 -5t20 -2q16 0 26 2.5t21 7.5q5 3 8 1t3 -6v-38q0 -11 -7 -16z" />
    <glyph glyph-name="adieresis" unicode="&#xe4;" horiz-adv-x="437" 
d="M399 102q8 -5 13 -19.5t5 -33.5v-49h-117q-12 0 -19.5 7t-9.5 15q-14 -12 -33 -19.5t-48 -7.5q-49 0 -80.5 13t-49.5 35.5t-25 52t-7 61.5v13q0 40 14 65t37.5 40t54.5 22.5t66 13.5q12 2 21 4.5t15 5.5q7 4 12 7v33q0 11 -9 19t-25 8q-14 0 -26.5 -6t-12.5 -18
q0 -9 -6.5 -11.5t-21.5 -2.5h-108v27q0 25 11.5 48t34 41t55 29t75.5 11t75.5 -11.5t54 -31t32.5 -44t11 -49.5l-1 -246q0 -8 4.5 -13.5t8.5 -8.5h-1zM214 109q10 1 16 4t11 6q4 4 8 7v118q-5 -2 -9 -4t-9.5 -3.5t-10.5 -3.5q-12 -4 -21.5 -7.5t-16.5 -10.5t-11 -19t-4 -31
v-7q0 -27 14.5 -39t32.5 -10zM177 568q0 -38 -10 -38h-50q-13 0 -13 38q0 36 11 36h2h49q7 0 9 -9.5t2 -26.5zM324 568q0 -38 -9 -38h-52q-11 0 -11 38q0 36 10 36h1l50 1q8 0 9.5 -10t1.5 -27z" />
    <glyph glyph-name="aring" unicode="&#xe5;" horiz-adv-x="437" 
d="M400 103q8 -5 13 -19.5t5 -33.5v-49h-117q-12 0 -19.5 7t-9.5 15q-14 -12 -33 -19.5t-48 -7.5q-49 0 -80.5 13t-49.5 35.5t-25 52t-7 61.5v13q0 40 14 65t37.5 40t54.5 22.5t66 13.5q12 2 21 4.5t15 5.5q7 4 12 7v33q0 11 -9 19t-25 8q-14 0 -26.5 -6t-12.5 -18
q0 -9 -6.5 -11.5t-21.5 -2.5h-108v27q0 25 11.5 48t34 41t55 29t75.5 11t75.5 -11.5t54 -31t32.5 -44t11 -49.5l-1 -246q0 -8 4.5 -13.5t8.5 -8.5h-1zM215 110q10 1 16 4t11 6q4 4 8 7v118q-5 -2 -9 -4t-9.5 -3.5t-10.5 -3.5q-12 -4 -21.5 -7.5t-16.5 -10.5t-11 -19t-4 -31
v-7q0 -27 14.5 -39t32.5 -10zM208 676q36 0 51 -21.5t15 -47.5v-7v-3v-2q-1 -31 -16 -50t-50 -19q-34 0 -48.5 18t-16.5 51v4v3v3q2 35 16 53t49 18zM237 598v8q0 41 -29 41t-29 -39v-6v-3v-5q0 -41 29 -41q14 0 21.5 9.5t7.5 32.5v3z" />
    <glyph glyph-name="egrave" unicode="&#xe8;" horiz-adv-x="414" 
d="M148 236v-89q0 -11 5.5 -17.5t13 -10t15 -4.5t10.5 -1q6 0 14.5 1.5t16 5t12.5 10t5 17.5v1q0 23 16.5 34t43.5 11h75v-65q0 -33 -15.5 -58t-41.5 -42t-60 -25.5t-71 -8.5t-69 10.5t-56 31t-37.5 50.5t-13.5 68v183q0 38 14.5 69t39 52.5t57.5 33.5t70 12t70.5 -12
t58.5 -33.5t39.5 -52.5t14.5 -69v-51q0 -26 -7 -38.5t-39 -12.5h-181zM148 312h88v33q0 16 -5 25.5t-12 14t-14.5 6t-12.5 1.5t-12 -1.5t-14.5 -6.5t-12.5 -14t-5 -25v-33zM255 528q0 -2 -3 0l-121 90q-3 3 0 3l40 46q-1 1 0 1t3 -1l103 -108q2 0 2 -3z" />
    <glyph glyph-name="eacute" unicode="&#xe9;" horiz-adv-x="414" 
d="M148 236v-89q0 -11 5.5 -17.5t13 -10t15 -4.5t10.5 -1q6 0 14.5 1.5t16 5t12.5 10t5 17.5v1q0 23 16.5 34t43.5 11h75v-65q0 -33 -15.5 -58t-41.5 -42t-60 -25.5t-71 -8.5t-69 10.5t-56 31t-37.5 50.5t-13.5 68v183q0 38 14.5 69t39 52.5t57.5 33.5t70 12t70.5 -12
t58.5 -33.5t39.5 -52.5t14.5 -69v-51q0 -26 -7 -38.5t-39 -12.5h-181zM148 312h88v33q0 16 -5 25.5t-12 14t-14.5 6t-12.5 1.5t-12 -1.5t-14.5 -6.5t-12.5 -14t-5 -25v-33zM279 602q0 -2 -1 -3l-118 -87q-3 -3 -3 0l-24 27q-3 0 0 3l104 105q0 3 3 0z" />
    <glyph glyph-name="ecircumflex" unicode="&#xea;" horiz-adv-x="450" 
d="M165 236v-89q0 -11 5.5 -17.5t13 -10t15 -4.5t10.5 -1q6 0 14.5 1.5t16 5t12.5 10t5 17.5v1q0 23 16.5 34t43.5 11h75v-65q0 -33 -15.5 -58t-41.5 -42t-60 -25.5t-71 -8.5t-69 10.5t-56 31t-37.5 50.5t-13.5 68v183q0 38 14.5 69t39 52.5t57.5 33.5t70 12t70.5 -12
t58.5 -33.5t39.5 -52.5t14.5 -69v-51q0 -26 -7 -38.5t-39 -12.5h-181zM165 312h88v33q0 16 -5 25.5t-12 14t-14.5 6t-12.5 1.5t-12 -1.5t-14.5 -6.5t-12.5 -14t-5 -25v-33zM227 566q-2 1 -3 0l-76 -52q-2 -2 -2 0l-26 25q-3 0 0 3l104 104h2h1l104 -104q3 -3 0 -3l-26 -25
q-1 -1 -2 0z" />
    <glyph glyph-name="edieresis" unicode="&#xeb;" horiz-adv-x="450" 
d="M165 236v-89q0 -11 5.5 -17.5t13 -10t15 -4.5t10.5 -1q6 0 14.5 1.5t16 5t12.5 10t5 17.5v1q0 23 16.5 34t43.5 11h75v-65q0 -33 -15.5 -58t-41.5 -42t-60 -25.5t-71 -8.5t-69 10.5t-56 31t-37.5 50.5t-13.5 68v183q0 38 14.5 69t39 52.5t57.5 33.5t70 12t70.5 -12
t58.5 -33.5t39.5 -52.5t14.5 -69v-51q0 -26 -7 -38.5t-39 -12.5h-181zM165 312h88v33q0 16 -5 25.5t-12 14t-14.5 6t-12.5 1.5t-12 -1.5t-14.5 -6.5t-12.5 -14t-5 -25v-33zM186 568q0 -38 -10 -38h-50q-13 0 -13 38q0 36 11 36h2h49q7 0 9 -9.5t2 -26.5zM333 568
q0 -38 -9 -38h-52q-11 0 -11 38q0 36 10 36h1l50 1q8 0 9.5 -10t1.5 -27z" />
    <glyph glyph-name="igrave" unicode="&#xec;" horiz-adv-x="270" 
d="M219 116q-4 3 -7 7.5t-3 13.5v344q0 19 -23 19h-150v-77q0 -17 7.5 -28t14.5 -16q11 -7 12 -18v-227q-1 -7 -4 -10.5t-7 -6.5q-8 -5 -15.5 -16.5t-7.5 -30.5v-70h206v69q0 19 -7.5 30.5t-15.5 16.5zM171 555q0 -2 -3 0l-121 90q-3 3 0 3l40 46q-1 1 0 1t3 -1l103 -108
q2 0 2 -3z" />
    <glyph glyph-name="iacute" unicode="&#xed;" horiz-adv-x="270" 
d="M219 116q-4 3 -7 7.5t-3 13.5v344q0 19 -23 19h-150v-77q0 -17 7.5 -28t14.5 -16q11 -7 12 -18v-227q-1 -7 -4 -10.5t-7 -6.5q-8 -5 -15.5 -16.5t-7.5 -30.5v-70h206v69q0 19 -7.5 30.5t-15.5 16.5zM206 620q0 -2 -1 -3l-118 -87q-3 -3 -3 0l-24 27q-3 0 0 3l104 105
q0 3 3 0z" />
    <glyph glyph-name="icircumflex" unicode="&#xee;" horiz-adv-x="270" 
d="M219 116q8 -5 15.5 -16.5t7.5 -30.5v-69h-206v70q0 19 7.5 30.5t15.5 16.5q4 3 7 6.5t4 10.5v227q-1 11 -12 18q-7 5 -14.5 16t-7.5 28v77h150q23 0 23 -19v-344q0 -9 3 -13.5t7 -7.5zM129 591q-2 1 -3 0l-76 -52q-2 -2 -2 0l-26 25q-3 0 0 3l104 104h2h1l104 -104
q3 -3 0 -3l-26 -25q-1 -1 -2 0z" />
    <glyph glyph-name="idieresis" unicode="&#xef;" horiz-adv-x="270" 
d="M219 116q8 -5 15.5 -16.5t7.5 -30.5v-69h-206v70q0 19 7.5 30.5t15.5 16.5q4 3 7 6.5t4 10.5v227q-1 11 -12 18q-7 5 -14.5 16t-7.5 28v77h150q23 0 23 -19v-344q0 -9 3 -13.5t7 -7.5zM84 576q0 -38 -10 -38h-50q-13 0 -13 38q0 36 11 36h2h49q7 0 9 -9.5t2 -26.5z
M231 576q0 -38 -9 -38h-52q-11 0 -11 38q0 36 10 36h1l50 1q8 0 9.5 -10t1.5 -27z" />
    <glyph glyph-name="ntilde" unicode="&#xf1;" horiz-adv-x="479" 
d="M438 112q13 -9 13 -47v-65h-118q-21 0 -34.5 15.5t-13.5 41.5v260q0 17 -5 27.5t-12.5 15.5t-17.5 6t-20 0q-10 -2 -16.5 -5.5t-10.5 -7.5t-7 -9v-211q0 -9 2.5 -13t7.5 -8q8 -5 15.5 -16t7.5 -31l-1 -65h-204v66q0 19 7.5 30.5t15.5 16.5q5 3 7.5 6t3.5 13v211
q0 21 -3.5 27.5t-7.5 10.5q-8 5 -15.5 16t-7.5 28v75h141q8 0 12 -3.5t6 -7.5q3 -5 3 -11q10 7 24 13q12 5 29 9t38 4q37 0 64.5 -13t45.5 -36t27 -55t9 -70v-197q1 -9 5.5 -13.5t9.5 -7.5zM318 553q-8 -6 -19 -11t-29 -5q-25 0 -50 7t-48 7q-15 0 -24.5 -3.5t-18.5 -7.5
q-11 -3 -11 8v32q0 9 2.5 13.5t7.5 8.5q8 5 17 9.5t32 4.5q17 0 29 -2t22 -5t19 -5t20 -2q16 0 26 2.5t21 7.5q5 3 8 1t3 -6v-38q0 -11 -7 -16z" />
    <glyph glyph-name="ograve" unicode="&#xf2;" horiz-adv-x="439" 
d="M223 504q36 0 69 -10t58 -29t39.5 -45t14.5 -58v-229q0 -33 -14.5 -58t-39 -42.5t-57.5 -26.5t-69 -9q-35 0 -68 9t-58.5 28t-41 47.5t-15.5 66.5v205q0 38 14.5 66.5t39.5 47t58 28t70 9.5zM223 117q7 0 14.5 1.5t14.5 5.5t11.5 11.5t4.5 19.5v197q0 12 -5 19
t-11.5 10.5t-14.5 5t-14 1.5t-13.5 -1.5t-14 -5.5t-11.5 -11t-5 -19v-197q0 -11 4.5 -18.5t11 -11.5t14 -5.5t14.5 -1.5zM258 533q0 -2 -3 0l-121 90q-3 3 0 3l40 46q-1 1 0 1t3 -1l103 -108q2 0 2 -3z" />
    <glyph glyph-name="oacute" unicode="&#xf3;" horiz-adv-x="439" 
d="M218 504q36 0 69 -10t58 -29t39.5 -45t14.5 -58v-229q0 -33 -14.5 -58t-39 -42.5t-57.5 -26.5t-69 -9q-35 0 -68 9t-58.5 28t-41 47.5t-15.5 66.5v205q0 38 14.5 66.5t39.5 47t58 28t70 9.5zM218 117q7 0 14.5 1.5t14.5 5.5t11.5 11.5t4.5 19.5v197q0 12 -5 19
t-11.5 10.5t-14.5 5t-14 1.5t-13.5 -1.5t-14 -5.5t-11.5 -11t-5 -19v-197q0 -11 4.5 -18.5t11 -11.5t14 -5.5t14.5 -1.5zM292 602q0 -2 -1 -3l-118 -87q-3 -3 -3 0l-24 27q-3 0 0 3l104 105q0 3 3 0z" />
    <glyph glyph-name="otilde" unicode="&#xf5;" horiz-adv-x="439" 
d="M218 504q36 0 69 -10t58 -29t39.5 -45t14.5 -58v-229q0 -33 -14.5 -58t-39 -42.5t-57.5 -26.5t-69 -9q-35 0 -68 9t-58.5 28t-41 47.5t-15.5 66.5v205q0 38 14.5 66.5t39.5 47t58 28t70 9.5zM218 117q7 0 14.5 1.5t14.5 5.5t11.5 11.5t4.5 19.5v197q0 12 -5 19
t-11.5 10.5t-14.5 5t-14 1.5t-13.5 -1.5t-14 -5.5t-11.5 -11t-5 -19v-197q0 -11 4.5 -18.5t11 -11.5t14 -5.5t14.5 -1.5zM322 548q-8 -6 -19 -11t-29 -5q-25 0 -50 7t-48 7q-15 0 -24.5 -3.5t-18.5 -7.5q-11 -3 -11 8v32q0 9 2.5 13.5t7.5 8.5q8 5 17 9.5t32 4.5q17 0 29 -2
t22 -5t19 -5t20 -2q16 0 26 2.5t21 7.5q5 3 8 1t3 -6v-38q0 -11 -7 -16z" />
    <glyph glyph-name="ocircumflex" unicode="&#xf4;" horiz-adv-x="439" 
d="M229 504q36 0 69 -10t58 -29t39.5 -45t14.5 -58v-229q0 -33 -14.5 -58t-39 -42.5t-57.5 -26.5t-69 -9q-35 0 -68 9t-58.5 28t-41 47.5t-15.5 66.5v205q0 38 14.5 66.5t39.5 47t58 28t70 9.5zM229 117q7 0 14.5 1.5t14.5 5.5t11.5 11.5t4.5 19.5v197q0 12 -5 19
t-11.5 10.5t-14.5 5t-14 1.5t-13.5 -1.5t-14 -5.5t-11.5 -11t-5 -19v-197q0 -11 4.5 -18.5t11 -11.5t14 -5.5t14.5 -1.5zM227 568q-2 1 -3 0l-76 -52q-2 -2 -2 0l-26 25q-3 0 0 3l104 104h2h1l104 -104q3 -3 0 -3l-26 -25q-1 -1 -2 0z" />
    <glyph glyph-name="odieresis" unicode="&#xf6;" horiz-adv-x="439" 
d="M216 504q36 0 69 -10t58 -29t39.5 -45t14.5 -58v-229q0 -33 -14.5 -58t-39 -42.5t-57.5 -26.5t-69 -9q-35 0 -68 9t-58.5 28t-41 47.5t-15.5 66.5v205q0 38 14.5 66.5t39.5 47t58 28t70 9.5zM216 117q7 0 14.5 1.5t14.5 5.5t11.5 11.5t4.5 19.5v197q0 12 -5 19
t-11.5 10.5t-14.5 5t-14 1.5t-13.5 -1.5t-14 -5.5t-11.5 -11t-5 -19v-197q0 -11 4.5 -18.5t11 -11.5t14 -5.5t14.5 -1.5zM185 560q0 -38 -10 -38h-50q-13 0 -13 38q0 36 11 36h2h49q7 0 9 -9.5t2 -26.5zM332 560q0 -38 -9 -38h-52q-11 0 -11 38q0 36 10 36h1l50 1
q8 0 9.5 -10t1.5 -27z" />
    <glyph glyph-name="ugrave" unicode="&#xf9;" horiz-adv-x="471" 
d="M424 124q8 -5 13.5 -16.5t5.5 -30.5v-77h-83q-18 0 -24 5.5t-11 14.5q-8 -6 -20 -10.5t-26 -7t-27.5 -3.5t-22.5 -1q-37 0 -69.5 9t-57 28t-38.5 47.5t-14 66.5v211q0 8 -3 13t-8 9q-8 5 -13 16t-5 28v74h130q15 0 25.5 -11t10.5 -30v-304q0 -17 12.5 -28t36.5 -11
q21 0 30 6.5t9 7.5v230q0 8 -3 13t-8 9q-8 5 -13 16t-5 28v74h129q17 0 28 -13t11 -24v-319q0 -9 3 -13t7 -7zM259 529q0 -2 -3 0l-121 90q-3 3 0 3l40 46q-1 1 0 1t3 -1l103 -108q2 0 2 -3z" />
    <glyph glyph-name="uacute" unicode="&#xfa;" horiz-adv-x="471" 
d="M424 124q8 -5 13.5 -16.5t5.5 -30.5v-77h-83q-18 0 -24 5.5t-11 14.5q-8 -6 -20 -10.5t-26 -7t-27.5 -3.5t-22.5 -1q-37 0 -69.5 9t-57 28t-38.5 47.5t-14 66.5v211q0 8 -3 13t-8 9q-8 5 -13 16t-5 28v74h130q15 0 25.5 -11t10.5 -30v-304q0 -17 12.5 -28t36.5 -11
q21 0 30 6.5t9 7.5v230q0 8 -3 13t-8 9q-8 5 -13 16t-5 28v74h129q17 0 28 -13t11 -24v-319q0 -9 3 -13t7 -7zM292 608q0 -2 -1 -3l-118 -87q-3 -3 -3 0l-24 27q-3 0 0 3l104 105q0 3 3 0z" />
    <glyph glyph-name="ucircumflex" unicode="&#xfb;" horiz-adv-x="471" 
d="M424 124q8 -5 13.5 -16.5t5.5 -30.5v-77h-83q-18 0 -24 5.5t-11 14.5q-8 -6 -20 -10.5t-26 -7t-27.5 -3.5t-22.5 -1q-37 0 -69.5 9t-57 28t-38.5 47.5t-14 66.5v211q0 8 -3 13t-8 9q-8 5 -13 16t-5 28v74h130q15 0 25.5 -11t10.5 -30v-304q0 -17 12.5 -28t36.5 -11
q21 0 30 6.5t9 7.5v230q0 8 -3 13t-8 9q-8 5 -13 16t-5 28v74h129q17 0 28 -13t11 -24v-319q0 -9 3 -13t7 -7zM217 575q-2 1 -3 0l-76 -52q-2 -2 -2 0l-26 25q-3 0 0 3l104 104h2h1l104 -104q3 -3 0 -3l-26 -25q-1 -1 -2 0z" />
    <glyph glyph-name="udieresis" unicode="&#xfc;" horiz-adv-x="471" 
d="M424 124q8 -5 13.5 -16.5t5.5 -30.5v-77h-83q-18 0 -24 5.5t-11 14.5q-8 -6 -20 -10.5t-26 -7t-27.5 -3.5t-22.5 -1q-37 0 -69.5 9t-57 28t-38.5 47.5t-14 66.5v211q0 8 -3 13t-8 9q-8 5 -13 16t-5 28v74h130q15 0 25.5 -11t10.5 -30v-304q0 -17 12.5 -28t36.5 -11
q21 0 30 6.5t9 7.5v230q0 8 -3 13t-8 9q-8 5 -13 16t-5 28v74h129q17 0 28 -13t11 -24v-319q0 -9 3 -13t7 -7zM180 569q0 -38 -10 -38h-50q-13 0 -13 38q0 36 11 36h2h49q7 0 9 -9.5t2 -26.5zM327 569q0 -38 -9 -38h-52q-11 0 -11 38q0 36 10 36h1l50 1q8 0 9.5 -10t1.5 -27
z" />
    <glyph glyph-name="yacute" unicode="&#xfd;" horiz-adv-x="457" 
d="M418 500v-72q0 -19 -2.5 -25.5t-9.5 -16.5q-8 -10 -11.5 -15t-5.5 -16q-6 -27 -16.5 -78t-23 -112.5t-25.5 -126t-24 -118.5t-18.5 -90.5t-8.5 -40.5q-5 -19 -21.5 -30.5t-32.5 -11.5h-82h-22v87q0 14 7.5 23t15.5 12q19 2 26 4t10 11l28 116h-46q-16 0 -19 18
q-4 17 -11.5 47.5t-15.5 66t-16.5 72t-16 67.5t-12 52t-5.5 24q-5 25 -15 31q-7 6 -12.5 16.5t-5.5 28.5v77h105q32 0 38 -38q0 -2 2.5 -16.5t6.5 -37t9 -51t10 -57.5q12 -69 27 -154l27 153q5 29 10 57t9 50.5t7 37t3 17.5q2 14 5 22t7.5 11.5t12.5 4.5t20 1h92zM307 603
q0 -2 -1 -3l-118 -87q-3 -3 -3 0l-24 27q-3 0 0 3l104 105q0 3 3 0z" />
    <glyph glyph-name="ydieresis" unicode="&#xff;" horiz-adv-x="457" 
d="M418 500v-72q0 -19 -2.5 -25.5t-9.5 -16.5q-8 -10 -11.5 -15t-5.5 -16q-6 -27 -16.5 -78t-23 -112.5t-25.5 -126t-24 -118.5t-18.5 -90.5t-8.5 -40.5q-5 -19 -21.5 -30.5t-32.5 -11.5h-82h-22v87q0 14 7.5 23t15.5 12q19 2 26 4t10 11l28 116h-46q-16 0 -19 18
q-4 17 -11.5 47.5t-15.5 66t-16.5 72t-16 67.5t-12 52t-5.5 24q-5 25 -15 31q-7 6 -12.5 16.5t-5.5 28.5v77h105q32 0 38 -38q0 -2 2.5 -16.5t6.5 -37t9 -51t10 -57.5q12 -69 27 -154l27 153q5 29 10 57t9 50.5t7 37t3 17.5q2 14 5 22t7.5 11.5t12.5 4.5t20 1h92zM191 560
q0 -38 -10 -38h-50q-13 0 -13 38q0 36 11 36h2h49q7 0 9 -9.5t2 -26.5zM338 560q0 -38 -9 -38h-52q-11 0 -11 38q0 36 10 36h1l50 1q8 0 9.5 -10t1.5 -27z" />
    <glyph glyph-name="Aring" unicode="&#xc5;" horiz-adv-x="510" 
d="M480 114q8 -5 15 -16t7 -28v-70h-200v58q0 18 7 33t15 20q5 4 8.5 8t3.5 13q-1 8 -2 15q-1 6 -2.5 12.5t-2.5 11.5q-2 8 -7 10.5t-13 2.5h-94q-9 0 -12.5 -1.5t-5.5 -11.5q-1 -5 -2 -11.5t-3 -12.5q-2 -7 -3 -15q0 -9 2 -13t7 -8q8 -5 15 -20.5t7 -33.5v-57h-197v70
q0 17 7.5 28t14.5 16q5 4 9 9t6 13q28 133 51 239q10 45 19 88t16.5 77t12 55t4.5 22q2 8 2 14.5t-5 8.5q-11 5 -18 16.5t-7 34.5v57h155q23 0 36.5 -14t16.5 -31q0 -4 5.5 -30.5t14.5 -67t20 -91t22 -102.5q26 -122 60 -276q3 -13 15 -22zM298 299q7 0 9 1.5t1 7.5
q0 2 -3.5 21t-8 46t-10 58.5t-10 58.5t-8 45t-3.5 19q0 4 -2.5 3.5t-3.5 -2.5q0 -1 -3 -19.5t-8 -45.5t-10.5 -58t-10.5 -58.5t-8.5 -46.5t-3.5 -21q-1 -6 1 -7.5t9 -1.5h73zM237 925q36 0 51 -21.5t15 -47.5v-7v-3v-2q-1 -31 -16 -50t-50 -19q-34 0 -48.5 18t-16.5 51v4v3
v3q2 35 16 53t49 18zM266 847v8q0 41 -29 41t-29 -39v-6v-3v-5q0 -41 29 -41q14 0 21.5 9.5t7.5 32.5v3z" />
    <glyph glyph-name="quotedblright" unicode="&#x201d;" 
d="M306 745v-92v-19q0 -17 -2 -28.5t-7.5 -21.5t-15 -21t-24.5 -26q-9 -8 -12 -6.5t-9 6.5q-8 7 -7.5 10t10.5 13q15 15 19.5 29.5t0.5 25.5t-13 17.5t-21 6.5q-23 0 -32.5 3.5t-9.5 10.5v91q0 8 20 11.5t42 3.5q23 0 42 -3.5t19 -10.5zM152 745v-92v-19q0 -17 -2 -28.5
t-7.5 -21.5t-15 -21t-24.5 -26q-9 -8 -12 -6.5t-10 6.5q-7 7 -6.5 10t10.5 13q15 15 19 29.5t0.5 25.5t-12.5 17.5t-21 6.5q-23 0 -33 3.5t-10 10.5v91q0 8 20 11.5t43 3.5t42 -3.5t19 -10.5z" />
    <glyph glyph-name="quotedblleft" unicode="&#x201c;" 
d="M28 538v92v19q0 16 2 28t8 22t15.5 21t24.5 26q8 8 11.5 6.5t9.5 -6.5q8 -6 7.5 -9.5t-11.5 -13.5q-15 -15 -19 -29.5t-0.5 -25.5t12.5 -17.5t21 -6.5q23 0 33 -3.5t10 -10.5v-91q0 -8 -20 -11.5t-43 -3.5t-42 3.5t-19 10.5zM183 538v92v19q0 16 2 28t7.5 22t15 21
t24.5 26q8 8 11.5 6.5t9.5 -6.5q8 -6 7.5 -9.5t-10.5 -13.5q-15 -15 -19.5 -29.5t-1 -25.5t12.5 -17.5t21 -6.5q23 0 33 -3.5t10 -10.5v-91q0 -8 -20 -11.5t-43 -3.5t-41.5 3.5t-18.5 10.5z" />
    <glyph glyph-name="scaron" unicode="&#x161;" horiz-adv-x="448" 
d="M221 388q-15 0 -27.5 -7.5t-12.5 -24.5q0 -15 16.5 -25t41 -20.5t53.5 -22.5t53.5 -30t41 -44t16.5 -64q0 -45 -15.5 -74.5t-41.5 -47.5t-60 -25.5t-71 -7.5q-86 0 -131.5 39t-45.5 104v55h78q53 0 53 -48q0 -18 11.5 -25t29.5 -7q25 0 34.5 12t9.5 29t-15.5 28
t-38.5 21.5t-50.5 23t-50.5 31t-38.5 45.5t-15.5 67q0 26 10.5 50.5t32 43t55 30t79.5 11.5q41 0 73.5 -11t55 -29.5t34 -43t11.5 -51.5v-58h-72q-27 0 -42 11t-15 32q0 17 -13 25t-33 8zM218 602q2 -2 4 0l87 66h2l24 -24q3 -3 0 -3l-76 -76q-1 0 -2 -1h-1l-1 -2l-33 -33
q-1 0 -2 -1l-2 1l-33 33q-1 1 -1 2h-1l-1 1l-77 76q-3 0 0 3l24 24h2z" />
    <glyph glyph-name="Zcaron" unicode="&#x17d;" horiz-adv-x="420" 
d="M399 173v-148q0 -12 -6.5 -18t-17.5 -6h-325q-11 0 -18 7.5t-7 17.5v94q0 11 1 14t2 5q60 129 108 231q20 43 39.5 85t35.5 75.5t25.5 54.5t10.5 23q2 6 -2 10.5t-14 4.5h-68q-9 0 -15.5 -3t-6.5 -11v-34h-49q-26 0 -40.5 15.5t-14.5 38.5v95q0 24 22 24h66h236
q12 0 19.5 -7t7.5 -19v-93q0 -5 -0.5 -8.5t-1.5 -6.5q-1 -4 -1 -6q-56 -128 -101 -229q-19 -43 -37.5 -84.5t-33 -74.5t-24 -54t-9.5 -22q-2 -7 0 -14t10 -7h104q0 20 11 35t42 15h52zM210 873q2 -2 4 0l87 66h2l24 -24q3 -3 0 -3l-76 -76q-1 0 -2 -1h-1l-1 -2l-33 -33
q-1 0 -2 -1l-2 1l-33 33q-1 1 -1 2h-1l-1 1l-77 76q-3 0 0 3l24 24h2z" />
    <glyph glyph-name="zcaron" unicode="&#x17e;" horiz-adv-x="412" 
d="M373 159v-136q0 -8 -7 -15.5t-15 -7.5h-85h-67h-158q-8 0 -12 5.5t-4 11.5v97q0 7 2.5 15.5t13.5 21.5q3 4 18 22t35 42.5t43 52.5t42.5 52t32 40t13.5 18q4 10 -8 10h-71q-6 0 -7.5 -7t-1.5 -12v-22h-70q-17 0 -26.5 10t-9.5 25v93q0 25 22 25h45h248q18 0 18 -17v-112
q0 -5 -2.5 -10.5t-4.5 -10.5q-4 -5 -7 -11q-46 -58 -82 -105q-15 -20 -30 -39t-27 -34t-19.5 -24.5t-7.5 -10.5q-2 -5 1 -8.5t8 -3.5h16h4h49q0 14 8.5 29.5t24.5 15.5h78zM202 620q2 -2 4 0l87 66h2l24 -24q3 -3 0 -3l-76 -76q-1 0 -2 -1h-1l-1 -2l-33 -33q-1 0 -2 -1l-2 1
l-33 33q-1 1 -1 2h-1l-1 1l-77 76q-3 0 0 3l24 24h2z" />
    <glyph glyph-name="Scaron" unicode="&#x160;" horiz-adv-x="463" 
d="M181 524q0 -20 18.5 -36.5t46.5 -33t60 -34.5t60 -41t46.5 -52.5t18.5 -69.5v-115q0 -38 -17.5 -66.5t-45.5 -47t-63.5 -27.5t-72.5 -9t-73 9t-64 27.5t-45 47t-17 66.5v85h82q27 0 40.5 -16.5t13.5 -39.5v-20q0 -16 18.5 -28t44.5 -12t43.5 14.5t17.5 28.5v78
q0 33 -18.5 54.5t-46 38t-60 31.5t-60 36.5t-46 52t-18.5 77.5v84q0 40 15.5 68.5t41.5 47t60 27t71 8.5t71 -9.5t59.5 -28t40.5 -47t15 -66.5v-84h-75q-25 0 -42 15t-17 39v21q0 21 -16.5 32.5t-36.5 11.5q-21 0 -35.5 -12t-14.5 -27v-78zM233 839q2 -2 4 0l87 66h2l24 -24
q3 -3 0 -3l-76 -76q-1 0 -2 -1h-1l-1 -2l-33 -33q-1 0 -2 -1l-2 1l-33 33q-1 1 -1 2h-1l-1 1l-77 76q-3 0 0 3l24 24h2z" />
    <glyph glyph-name="Agrave" unicode="&#xc0;" horiz-adv-x="520" 
d="M474 114q8 -5 15 -16t7 -28v-70h-200v58q0 18 7 33t15 20q5 4 8.5 8t3.5 13q-1 8 -2 15q-1 6 -2.5 12.5t-2.5 11.5q-2 8 -7 10.5t-13 2.5h-94q-9 0 -12.5 -1.5t-5.5 -11.5q-1 -5 -2 -11.5t-3 -12.5q-2 -7 -3 -15q0 -9 2 -13t7 -8q8 -5 15 -20.5t7 -33.5v-57h-197v70
q0 17 7.5 28t14.5 16q5 4 9 9t6 13q28 133 51 239q10 45 19 88t16.5 77t12 55t4.5 22q2 8 2 14.5t-5 8.5q-11 5 -18 16.5t-7 34.5v57h155q23 0 36.5 -14t16.5 -31q0 -4 5.5 -30.5t14.5 -67t20 -91t22 -102.5q26 -122 60 -276q3 -13 15 -22zM292 299q7 0 9 1.5t1 7.5
q0 2 -3.5 21t-8 46t-10 58.5t-10 58.5t-8 45t-3.5 19q0 4 -2.5 3.5t-3.5 -2.5q0 -1 -3 -19.5t-8 -45.5t-10.5 -58t-10.5 -58.5t-8.5 -46.5t-3.5 -21q-1 -6 1 -7.5t9 -1.5h73zM264 767q0 -2 -3 0l-121 90q-3 3 0 3l40 46q-1 1 0 1t3 -1l103 -108q2 0 2 -3z" />
    <glyph glyph-name="Aacute" unicode="&#xc1;" horiz-adv-x="519" 
d="M477 114q8 -5 15 -16t7 -28v-70h-200v58q0 18 7 33t15 20q5 4 8.5 8t3.5 13q-1 8 -2 15q-1 6 -2.5 12.5t-2.5 11.5q-2 8 -7 10.5t-13 2.5h-94q-9 0 -12.5 -1.5t-5.5 -11.5q-1 -5 -2 -11.5t-3 -12.5q-2 -7 -3 -15q0 -9 2 -13t7 -8q8 -5 15 -20.5t7 -33.5v-57h-197v70
q0 17 7.5 28t14.5 16q5 4 9 9t6 13q28 133 51 239q10 45 19 88t16.5 77t12 55t4.5 22q2 8 2 14.5t-5 8.5q-11 5 -18 16.5t-7 34.5v57h155q23 0 36.5 -14t16.5 -31q0 -4 5.5 -30.5t14.5 -67t20 -91t22 -102.5q26 -122 60 -276q3 -13 15 -22zM295 299q7 0 9 1.5t1 7.5
q0 2 -3.5 21t-8 46t-10 58.5t-10 58.5t-8 45t-3.5 19q0 4 -2.5 3.5t-3.5 -2.5q0 -1 -3 -19.5t-8 -45.5t-10.5 -58t-10.5 -58.5t-8.5 -46.5t-3.5 -21q-1 -6 1 -7.5t9 -1.5h73zM330 845q0 -2 -1 -3l-118 -87q-3 -3 -3 0l-24 27q-3 0 0 3l104 105q0 3 3 0z" />
    <glyph glyph-name="Acircumflex" unicode="&#xc2;" horiz-adv-x="528" 
d="M483 114q8 -5 15 -16t7 -28v-70h-200v58q0 18 7 33t15 20q5 4 8.5 8t3.5 13q-1 8 -2 15q-1 6 -2.5 12.5t-2.5 11.5q-2 8 -7 10.5t-13 2.5h-94q-9 0 -12.5 -1.5t-5.5 -11.5q-1 -5 -2 -11.5t-3 -12.5q-2 -7 -3 -15q0 -9 2 -13t7 -8q8 -5 15 -20.5t7 -33.5v-57h-197v70
q0 17 7.5 28t14.5 16q5 4 9 9t6 13q28 133 51 239q10 45 19 88t16.5 77t12 55t4.5 22q2 8 2 14.5t-5 8.5q-11 5 -18 16.5t-7 34.5v57h155q23 0 36.5 -14t16.5 -31q0 -4 5.5 -30.5t14.5 -67t20 -91t22 -102.5q26 -122 60 -276q3 -13 15 -22zM301 299q7 0 9 1.5t1 7.5
q0 2 -3.5 21t-8 46t-10 58.5t-10 58.5t-8 45t-3.5 19q0 4 -2.5 3.5t-3.5 -2.5q0 -1 -3 -19.5t-8 -45.5t-10.5 -58t-10.5 -58.5t-8.5 -46.5t-3.5 -21q-1 -6 1 -7.5t9 -1.5h73zM245 817q-2 1 -3 0l-76 -52q-2 -2 -2 0l-26 25q-3 0 0 3l104 104h2h1l104 -104q3 -3 0 -3l-26 -25
q-1 -1 -2 0z" />
    <glyph glyph-name="Atilde" unicode="&#xc3;" horiz-adv-x="505" 
d="M471 114q8 -5 15 -16t7 -28v-70h-200v58q0 18 7 33t15 20q5 4 8.5 8t3.5 13q-1 8 -2 15q-1 6 -2.5 12.5t-2.5 11.5q-2 8 -7 10.5t-13 2.5h-94q-9 0 -12.5 -1.5t-5.5 -11.5q-1 -5 -2 -11.5t-3 -12.5q-2 -7 -3 -15q0 -9 2 -13t7 -8q8 -5 15 -20.5t7 -33.5v-57h-197v70
q0 17 7.5 28t14.5 16q5 4 9 9t6 13q28 133 51 239q10 45 19 88t16.5 77t12 55t4.5 22q2 8 2 14.5t-5 8.5q-11 5 -18 16.5t-7 34.5v57h155q23 0 36.5 -14t16.5 -31q0 -4 5.5 -30.5t14.5 -67t20 -91t22 -102.5q26 -122 60 -276q3 -13 15 -22zM289 299q7 0 9 1.5t1 7.5
q0 2 -3.5 21t-8 46t-10 58.5t-10 58.5t-8 45t-3.5 19q0 4 -2.5 3.5t-3.5 -2.5q0 -1 -3 -19.5t-8 -45.5t-10.5 -58t-10.5 -58.5t-8.5 -46.5t-3.5 -21q-1 -6 1 -7.5t9 -1.5h73zM331 785q-8 -6 -19 -11t-29 -5q-25 0 -50 7t-48 7q-15 0 -24.5 -3.5t-18.5 -7.5q-11 -3 -11 8v32
q0 9 2.5 13.5t7.5 8.5q8 5 17 9.5t32 4.5q17 0 29 -2t22 -5t19 -5t20 -2q16 0 26 2.5t21 7.5q5 3 8 1t3 -6v-38q0 -11 -7 -16z" />
    <glyph glyph-name="ellipsis" unicode="&#x2026;" horiz-adv-x="465" 
d="M135 75v-73q0 -8 -15 -12.5t-39 -4.5t-38.5 3.5t-14.5 11.5v2v71q0 9 15 12.5t38 3.5q24 0 39 -3.5t15 -10.5zM288 75v-73q0 -8 -15 -12.5t-39 -4.5t-38.5 3.5t-14.5 11.5v2v71q0 9 15 12.5t38 3.5q24 0 39 -3.5t15 -10.5zM437 75v-73q0 -8 -15 -12.5t-39 -4.5t-38.5 3.5
t-14.5 11.5v2v71q0 9 15 12.5t38 3.5q24 0 39 -3.5t15 -10.5z" />
    <glyph glyph-name="quoteleft" unicode="&#x2018;" horiz-adv-x="179" 
d="M28 537v92v19q0 16 2 28t7.5 22t15 21t24.5 26q8 8 11.5 6.5t9.5 -6.5q8 -6 7.5 -9.5t-10.5 -13.5q-15 -15 -19.5 -29.5t-1 -25.5t12.5 -17.5t21 -6.5q23 0 33 -3.5t10 -10.5v-91q0 -8 -20 -11.5t-43 -3.5t-41.5 3.5t-18.5 10.5z" />
    <glyph glyph-name="quoteright" unicode="&#x2019;" horiz-adv-x="179" 
d="M151 745v-92v-19q0 -17 -2 -28.5t-7.5 -22t-15 -21t-24.5 -25.5q-8 -8 -11.5 -6.5t-9.5 6.5q-8 6 -7.5 9.5t10.5 13.5q15 15 21 29.5t4.5 25.5t-9 17.5t-19.5 6.5q-23 0 -38 3t-15 11v91q0 8 20 11t43 3t41.5 -3t18.5 -10z" />
    <glyph glyph-name="numbersign" unicode="#" horiz-adv-x="714" 
d="M513 344q-4 0 -6 -5l-15 -73q-2 -5 4 -5h146q5 0 5 -5v-100q0 -5 -5 -5h-167q-6 0 -6 -5l-33 -140q-2 -5 -7 -5h-100q-6 0 -4 5l33 140q2 5 -3 5h-84q-4 0 -6 -5l-36 -140q-2 -5 -6 -5h-101q-5 0 -3 5l36 140q0 5 -4 5h-118q-5 0 -5 5v100q0 5 5 5h149q4 0 6 5l16 73
q2 5 -4 5h-129q-5 0 -5 5v101q0 5 5 5h150q4 0 6 4l32 132q2 5 6 5h101q4 0 4 -5l-32 -132q-2 -4 3 -4h73q5 0 7 4l32 132q0 5 6 5h100q6 0 4 -5l-32 -132q-2 -4 4 -4h146q5 0 5 -5v-101q0 -5 -5 -5h-168zM395 339q0 5 -4 5h-70q-6 0 -6 -5l-17 -73q0 -5 4 -5h70q6 0 6 5z
" />
    <glyph glyph-name="ampersand" unicode="&#x26;" horiz-adv-x="563" 
d="M500 110q3 0 8 0.5t9.5 -1t7.5 -6.5t3 -14v-51q0 -19 -3 -25.5t-18 -12.5q-42 -9 -83 -5.5t-73 22.5q-44 -24 -100 -24q-37 0 -71.5 11t-60.5 31.5t-42 50.5t-16 69v115q0 43 13 71.5t44 42.5q-15 6 -25.5 20t-17 32.5t-9.5 40t-3 42.5v79q0 39 15.5 69t41.5 50.5
t60 31.5t71 11q58 0 103 -24q5 -2 8 -10t-5 -16l-66 -66q-7 -7 -15 -7h-25q-4 0 -12 -1.5t-16.5 -6.5t-14.5 -13.5t-6 -21.5v-88q0 -35 9.5 -49t41.5 -14h46v2q0 5 1.5 14.5t6.5 18.5t15 16t27 7h88v-58h50q5 0 7 -2.5t4 -4.5q2 -3 2 -6v-100q0 -7 -5 -10.5t-10 -3.5h-48
v-32v-137q0 -20 18.5 -29.5t44.5 -7.5zM251 106q5 0 13 1t16 6t13.5 15t5.5 28v160h-48q-13 0 -22.5 -0.5t-16 -5t-9.5 -13.5t-3 -27v-111q0 -15 6 -25t14 -16.5t17 -9t14 -2.5z" />
    <glyph glyph-name="at" unicode="@" horiz-adv-x="727" 
d="M403 650q69 0 124 -15t94 -47.5t60 -82.5t21 -120q0 -66 -13 -110.5t-32.5 -73.5t-42 -44.5t-42.5 -23t-34 -8.5t-16 -1q-35 0 -61 6t-43 29q-10 -11 -25 -18q-13 -7 -32.5 -11t-45.5 -2q-35 3 -62.5 16.5t-44 38t-20.5 61t8 85.5q20 81 60 117.5t101 38.5q23 1 41 -2.5
t30.5 -8t19 -8.5l6.5 -4q4 7 8 11q11 14 36 14h76v-33q0 -17 -7 -27.5t-15 -16.5q-9 -5 -10 -14l-42 -160q-2 -13 8.5 -20t23.5 -7q30 0 47 16t24.5 41.5t9 58t1.5 64.5q0 52 -15 87.5t-44 58t-70.5 32.5t-94.5 10q-58 0 -108.5 -24.5t-88.5 -65.5t-60 -96.5t-22 -116.5
q0 -59 15 -99.5t42 -66.5t63.5 -37.5t80.5 -11.5q45 0 77 7t49 13q7 2 11 -0.5t5 -7.5t3.5 -20t4.5 -26q2 -10 0 -13t-7 -5q-14 -7 -48.5 -16.5t-80.5 -9.5q-70 0 -125 15.5t-92.5 49.5t-57.5 88t-20 131q0 89 29 160.5t79.5 121.5t118 76.5t145.5 26.5zM442 382
q-7 9 -18 15q-9 5 -22.5 8t-30.5 1q-32 -5 -47 -27t-29 -66q-14 -45 -5 -72t54 -30q20 -1 31.5 3t17.5 9q7 6 9 14z" />
    <glyph glyph-name="less" unicode="&#x3c;" 
d="M172 303q-1 -3 0 -4l133 -134q2 -2 0 -4l-67 -67q-2 -2 -4 0l-204 205l-2 2h1l1 2l204 204q2 2 4 0l67 -67q2 -2 0 -4z" />
    <glyph glyph-name="greater" unicode="&#x3e;" 
d="M162 298q1 1 0 4l-133 133q-2 2 0 4l67 67q2 2 4 0l204 -204q0 -1 1 -2h1l-1 -1q0 -1 -0.5 -1t-0.5 -1l-204 -204q-2 -2 -4 0l-67 67q-2 2 0 4z" />
    <glyph glyph-name="bracketright" unicode="]" horiz-adv-x="316" 
d="M285 894q3 0 3 -2v-124v-6v-775v-6v-119q0 -2 -3 -2h-135h-6h-113q-3 0 -3 2v118q0 3 3 3h113q3 0 3 3v775q0 3 -3 3h-113q-3 0 -3 3v125q0 2 3 2h113h6h135z" />
    <glyph glyph-name="bracketleft" unicode="[" horiz-adv-x="316" 
d="M31 -140q-3 0 -3 2v118v6v775v6v125q0 2 3 2h134h6h114q3 0 3 -2v-125q0 -3 -3 -3h-114q-3 0 -3 -3v-775q0 -3 3 -3h114q3 0 3 -3v-118q0 -2 -3 -2h-114h-6h-134z" />
    <glyph glyph-name="backslash" unicode="\" horiz-adv-x="314" 
d="M150 747q4 0 4 -2l141 -744q0 -2 -2 -2h-115q-3 0 -3 2l-146 744q-2 2 2 2h119z" />
    <glyph glyph-name="dollar" unicode="$" horiz-adv-x="460" 
d="M173 524q0 -20 19 -36.5t48 -33t62.5 -34.5t62.5 -41t48 -52.5t19 -69.5v-115q0 -38 -18 -66.5t-46.5 -47t-64.5 -27.5t-73 -9t-73.5 9t-65 27.5t-46 47t-17.5 66.5v95h79q27 0 40.5 -16.5t13.5 -39.5v-30q0 -16 21.5 -28t47.5 -12q13 0 25 4t21.5 10.5t15 14t5.5 14.5
v78q0 33 -19 54.5t-48 38t-62.5 31.5t-62.5 36.5t-48 52t-19 77.5v84q0 40 16 68.5t43 47t61.5 27t71.5 8.5t71.5 -9.5t61.5 -28t43 -47t16 -66.5v-94h-75q-25 0 -42 15t-17 39v31q0 21 -19.5 32.5t-39.5 11.5q-21 0 -38.5 -12t-17.5 -27v-78zM199 27h56v-81h-56v81z
M199 798h56v-81h-56v81z" />
    <glyph glyph-name="zero" unicode="0" horiz-adv-x="471" 
d="M237 -7q-93 0 -145 41.5t-52 118.5v444q0 77 51.5 119t145.5 42q95 0 144.5 -42t49.5 -119v-444q0 -77 -50 -118.5t-144 -41.5zM296 585q0 20 -7 31.5t-16.5 17t-19.5 7t-16 1.5t-16 -1.5t-20 -7t-17.5 -17t-7.5 -31.5v-420q0 -20 7.5 -31t18 -16.5t20.5 -7t15 -1.5t15 2
t19.5 8t17 18t7.5 32v416z" />
    <glyph glyph-name="slash" unicode="/" horiz-adv-x="315" 
d="M286 749q2 0 2 -2l-154 -745q0 -2 -3 -2h-111q-2 0 -2 2l154 745q2 2 4 2h110z" />
    <glyph glyph-name="quotesingle" unicode="'" horiz-adv-x="179" 
d="M87 758q24 0 44 -2.5t20 -10.5l-10 -114q0 -15 -51 -15q-24 0 -38 3t-14 11v1l-10 112q0 11 18 13t41 2z" />
    <glyph glyph-name="cent" unicode="&#xa2;" horiz-adv-x="403" 
d="M178 31h56v-81h-56v81zM179 540h56v-81h-56v81zM299 301q-27 0 -45.5 8.5t-18.5 37.5q0 26 -9 34t-23 8t-22.5 -7.5t-8.5 -35.5v-187q0 -24 8 -34.5t26 -10.5t25.5 10.5t7.5 26.5v5q0 23 18.5 36.5t44.5 13.5h72v-68q0 -33 -12.5 -59t-34.5 -44.5t-53 -28.5t-67 -10
q-37 0 -68 10.5t-53.5 31t-35.5 50.5t-13 68v188q0 38 13 68t35.5 50.5t53.5 31.5t68 11q36 0 66.5 -12t52.5 -32.5t34.5 -46t12.5 -52.5v-61h-74z" />
    <glyph glyph-name="yen" unicode="&#xa5;" horiz-adv-x="517" 
d="M403 360q3 0 3 -3v-55q0 -2 -3 -2h-289q-3 0 -3 2v55q0 3 3 3h289zM111 260q0 2 3 2h289q3 0 3 -2v-45q0 -3 -3 -3h-289q-3 0 -3 3v45zM491 749v-64q0 -17 -7.5 -28t-14.5 -17q-4 -2 -10 -6t-8 -12q-1 -2 -6.5 -18t-14.5 -41.5t-20 -57.5t-22 -65q-26 -77 -60 -175v-135
q0 -10 3 -14t8 -8q8 -5 15.5 -16t7.5 -30v-62h-203v63q0 17 8 28t16 17q4 3 6.5 7t3.5 13v137q-37 99 -66 177q-12 33 -24 65.5t-22 58t-16 41.5t-6 18q-2 5 -6.5 9t-6.5 6q-8 6 -15.5 17t-7.5 28v64h188v-68q0 -18 -1.5 -27t-9.5 -14q-5 -3 -10 -7t-3 -13q0 -2 3.5 -12.5
t8 -26t11 -34.5t12.5 -38q15 -46 33 -101l2 3q19 56 34 101q6 19 12.5 37.5t11.5 33.5l8.5 25.5t4.5 12.5q2 8 -3 12t-10 7q-7 5 -9 16t-2 29v64h187z" />
    <glyph glyph-name="Ydieresis" unicode="&#x178;" horiz-adv-x="517" 
d="M482 749v-64q0 -17 -7.5 -28t-14.5 -17q-4 -2 -10 -6t-8 -12q-1 -2 -6 -18t-13 -41.5t-18.5 -57.5t-20.5 -65q-25 -77 -55 -175v-135q0 -10 3 -14t8 -8q8 -5 15.5 -16t7.5 -30v-62h-203v63q0 17 8 28t16 17q4 3 6.5 7t3.5 13v137q-34 99 -61 177q-12 33 -23 65.5t-20 58
t-14.5 41.5t-5.5 18q-2 5 -6.5 9t-6.5 6q-8 6 -15.5 17t-7.5 28v64h192v-68q0 -18 -1.5 -27t-9.5 -14q-5 -3 -10 -7t-3 -13q0 -2 3 -12.5t6.5 -26t8.5 -34.5l10 -38q11 -46 26 -101l2 3q15 56 27 101q5 19 10 37.5t9 33.5t6.5 25.5t3.5 12.5q2 8 -3 12t-10 7q-7 5 -9 16
t-2 29v64h192zM224 811q0 -38 -10 -38h-50q-13 0 -13 38q0 36 11 36h2h49q7 0 9 -9.5t2 -26.5zM371 811q0 -38 -9 -38h-52q-11 0 -11 38q0 36 10 36h1l50 1q8 0 9.5 -10t1.5 -27z" />
    <glyph glyph-name="quotesinglbase" unicode="&#x201a;" horiz-adv-x="179" 
d="M151 745v-92v-19q0 -17 -2 -28.5t-7.5 -22t-15 -21t-24.5 -25.5q-8 -8 -11.5 -6.5t-9.5 6.5q-8 6 -7.5 9.5t10.5 13.5q15 15 21 29.5t4.5 25.5t-9 17.5t-19.5 6.5q-23 0 -38 3t-15 11v91q0 8 20 11t43 3t41.5 -3t18.5 -10z" />
    <glyph glyph-name="quotedblbase" unicode="&#x201e;" 
d="M306 100v-92v-19q0 -17 -2 -28.5t-7.5 -21.5t-15 -21t-24.5 -26q-9 -8 -12 -6.5t-9 6.5q-8 7 -7.5 10t10.5 13q15 15 19.5 29.5t0.5 25.5t-13 17.5t-21 6.5q-23 0 -32.5 3.5t-9.5 10.5v91q0 8 20 11.5t42 3.5q23 0 42 -3.5t19 -10.5zM152 100v-92v-19q0 -17 -2 -28.5
t-7.5 -21.5t-15 -21t-24.5 -26q-9 -8 -12 -6.5t-10 6.5q-7 7 -6.5 10t10.5 13q15 15 19 29.5t0.5 25.5t-12.5 17.5t-21 6.5q-23 0 -33 3.5t-10 10.5v91q0 8 20 11.5t43 3.5t42 -3.5t19 -10.5z" />
    <glyph glyph-name="divide" unicode="&#xf7;" horiz-adv-x="423" 
d="M286 486v-93q0 -4 -6.5 -6.5t-17 -4.5t-23 -3t-24.5 -1q-24 0 -42 2.5t-18 10.5v2v91q0 11 18.5 13.5t41.5 2.5q12 0 24.5 -1t23 -2.5t17 -4t6.5 -6.5zM283 212v-93q0 -8 -20.5 -12.5t-44.5 -4.5t-45 3.5t-21 11.5v2v92q0 4 6 7t15.5 5t21.5 2.5t23 0.5q24 0 44.5 -3.5
t20.5 -10.5zM31.207 344.37q0 2.7627 3.74512 2.7627h360.756q2.49707 0 2.49707 -2.7627v-87.4736q0 -2.76172 -2.49707 -2.76172h-360.756q-3.74512 0 -3.74512 2.76172v87.4736z" />
    <glyph glyph-name="Euro" unicode="&#x20ac;" horiz-adv-x="491" 
d="M383 512q-25 0 -42 15.5t-17 39.5v41q0 18 -13 25.5t-33 7.5q-21 0 -32.5 -10.5t-11.5 -37.5v-134h89v-61h-89v-37h89v-61h-89v-135q0 -8 2 -17t7 -17t13.5 -13.5t21.5 -5.5q26 0 37.5 13t11.5 37v19q0 23 13.5 39.5t40.5 16.5h82v-84q0 -38 -14.5 -68t-39.5 -50.5
t-58 -31.5t-70 -11t-70 11t-58 31.5t-40 50.5t-15 68v147h-70v61h70v37h-70v61h70v138q0 38 15 68t40 50.5t58 31t70 10.5t70 -10.5t58 -31t39.5 -50.5t14.5 -68v-85h-80v0z" />
    <glyph glyph-name="one" unicode="1" horiz-adv-x="313" 
d="M263 122q8 -5 15 -16t7 -29v-77h-36h-132h-31v77q0 17 7.5 27.5t14.5 17.5q9 9 9 17v401q0 10 -12 10q-9 0 -17 1q-17 2 -28 8q-11 5 -20 28t-9 59v19q31 2 57.5 14.5t37.5 41.5q1 3 7 7.5t14 9t17 8t17 3.5h46h22v-65v-545q0 -5 5.5 -10t8.5 -7z" />
    <glyph glyph-name="two" unicode="2" horiz-adv-x="427" 
d="M399 173v-147q0 -2 -0.5 -6t-3 -8.5t-8 -8t-14.5 -3.5h-71h-1h-209q-14 0 -25.5 5.5t-20 13.5t-13 17.5t-4.5 18.5v173q0 33 10 54.5t27.5 38t40 30.5t47.5 30t45 28.5t33 25.5t20 27.5t7 35.5v84q0 18 -8.5 32.5t-44.5 14.5q-17 0 -27 -4t-15 -10.5t-6.5 -15t-1.5 -17.5
v-3v-54h-62q-35 0 -50.5 13t-15.5 40v1v18q0 38 14.5 68t39.5 51t58 32t69 11t70 -11t60.5 -32t42.5 -51t16 -68v-104q0 -33 -12 -59.5t-30.5 -48.5t-42 -41t-47.5 -36q-32 -23 -52 -38t-32 -26.5t-16.5 -22t-4.5 -24.5v-41q0 -13 10 -19.5t21 -6.5h89q10 0 13 9
q5 10 19.5 22t37.5 12h48z" />
    <glyph glyph-name="three" unicode="3" horiz-adv-x="432" 
d="M347 381q31 -14 44 -42.5t13 -71.5v-115q0 -39 -16 -69t-42 -50.5t-60.5 -31.5t-71.5 -11q-36 0 -69.5 10.5t-59 31t-41 49.5t-16.5 66v74h88q17 0 27 -7t15 -16t6.5 -18.5t1.5 -14.5v-1v-11q0 -18 5.5 -28t13.5 -15t16 -6t13 -1t13.5 2.5t17 9t14.5 16.5t6 25v111
q0 18 -3 27t-9.5 13.5t-16 5t-22.5 0.5h-2h-62q-5 0 -10 3.5t-5 10.5v100q0 3 2 6q2 2 4 4.5t7 2.5h64q32 0 41.5 14t9.5 49v88q0 13 -6.5 21.5t-14.5 13.5t-16 6.5t-12 1.5q-3 0 -11 -1.5t-16.5 -6t-14.5 -12.5t-6 -22v-2v1q0 -5 -0.5 -14t-5 -18t-14 -16t-27.5 -7h-91v71
q2 36 18 63.5t41.5 47t58.5 29.5t68 10q37 0 71 -11t60 -31.5t41.5 -50.5t15.5 -69v-79q0 -21 -3 -42.5t-9.5 -40t-17 -32.5t-25.5 -20z" />
    <glyph glyph-name="four" unicode="4" horiz-adv-x="476" 
d="M246 294q7 0 7 7v200q-2 5 -3.5 4.5t-3.5 -2.5q-2 -3 -3 -6q-25 -54 -43 -97q-8 -18 -15.5 -36t-13.5 -32t-10 -23l-4 -9q-2 -6 4 -6h85zM392 169q-5 0 -5 -10v-19q0 -9 3.5 -15t8.5 -10q8 -5 15 -15.5t7 -29.5v-70h-44h-124h-33v70q0 18 7 29t15 16q5 3 7.5 10.5
t3.5 13.5v24q0 6 -6 6h-194q-10 0 -16.5 6t-6.5 20v64q0 3 0.5 6.5t2.5 9.5q5 16 21 53.5t37 85.5t44 100t42.5 96.5t33.5 75.5t16 37q8 19 18.5 22.5t23.5 3.5h91q11 0 19 -4t8 -18v-425q0 -6 5 -8q5 0 14 -1.5t17.5 -7.5t15 -16.5t6.5 -28.5v-71h-53z" />
    <glyph glyph-name="five" unicode="5" horiz-adv-x="440" 
d="M279 501q34 0 59 -12t41 -33t23.5 -48.5t7.5 -58.5v-198q0 -38 -15.5 -68t-42 -51t-60.5 -32t-71 -11t-71.5 11t-61 32t-42.5 51t-16 68v22l3 64h27q12 0 27 -0.5t30 -0.5q18 -1 28.5 -8t16.5 -16.5t8 -19t2 -14.5v-9q0 -25 13 -35.5t34 -10.5t36 8.5t15 25.5v180
q0 16 -10.5 24t-36.5 8q-15 0 -31 -5t-16 -17v-5h-23h-48q-6 0 -17 1.5t-22 6.5t-19 15.5t-8 28.5q1 12 2 37t2.5 55.5t3 63.5t3 62t2.5 51t2 30q1 23 13.5 39t34.5 16h255q39 0 39 -38v-138h-43q-21 0 -42.5 9.5t-26.5 18.5q-3 5 -7.5 9t-15.5 4h-51h-1h-13q-11 0 -11.5 -4
t-1.5 -14q0 -10 -2 -37.5t-4 -59.5q0 -8 6.5 -10.5t9.5 -0.5q15 8 39 11t47 3z" />
    <glyph glyph-name="six" unicode="6" horiz-adv-x="443" 
d="M275 293q0 20 -5.5 31.5t-14 17.5t-17.5 7.5t-16 1.5t-16 -1.5t-17.5 -7.5t-14 -17.5t-5.5 -31.5v-135q0 -20 6 -31t14.5 -16t17.5 -6t15 -1t15 1t17.5 6t14.5 16t6 31v135zM264 466q70 0 109.5 -45.5t39.5 -123.5v-144q0 -39 -16 -69t-42.5 -50.5t-61 -31.5t-71.5 -11
t-71.5 9.5t-61.5 28t-43 47t-16 67.5v453q0 39 16 69t42.5 50.5t61 31.5t71.5 11t71.5 -11t60.5 -31.5t42 -50.5t16 -69v-12v-48h-90q-18 0 -28 7t-15.5 16t-7 17.5t-1.5 12.5v3q0 12 -9.5 24t-38.5 12q-26 0 -37.5 -11t-11.5 -25v-133q0 -8 7 -4q6 3 17 5.5t23.5 4
t24.5 1.5h20z" />
    <glyph glyph-name="seven" unicode="7" horiz-adv-x="460" 
d="M406 748q10 0 17 -6t7 -17v-137q0 -8 -2.5 -14t-4.5 -8q-38 -68 -62.5 -117t-39.5 -94.5t-20.5 -95t-4.5 -116.5q0 -9 3.5 -13t8.5 -8q8 -5 15 -26t7 -39v-57h-34h-148h-32v57q0 9 2 19t5.5 19t7.5 16.5t8 10.5q7 6 10 12q0 7 0.5 14t0.5 14l1 14q2 61 8.5 110.5t21 98.5
t39 102.5t61.5 121.5q2 5 -3 6.5t-7 1.5h-78q-11 0 -18 -6.5t-7 -17.5v-43h-84q-18 0 -28.5 7t-16 16t-7.5 18.5t-2 14.5v11v4v80q0 47 62 47h304h10z" />
    <glyph glyph-name="eight" unicode="8" horiz-adv-x="439" 
d="M270 549q0 40 -11.5 58.5t-38.5 18.5q-28 0 -39 -18.5t-11 -58.5v-8q0 -40 11 -60t39 -20q27 0 38.5 20t11.5 60v8zM271 229q0 40 -12 58.5t-39 18.5q-28 0 -39.5 -18.5t-11.5 -58.5v-27q0 -40 11.5 -60t39.5 -20q27 0 39 20t12 60v27zM220 -8q-38 0 -72.5 10.5t-60.5 31
t-41.5 51t-15.5 69.5v111q0 38 13.5 68.5t38.5 47.5q3 2 3 9t-3 10q-21 17 -34.5 43.5t-13.5 58.5v95q0 38 15 68t40.5 51t59.5 32t71 11t70.5 -11t59 -32t41 -51t15.5 -68v-95q0 -32 -10.5 -59t-31.5 -44q-3 -3 -3 -9t3 -8q25 -16 35.5 -47.5t10.5 -69.5v-111
q0 -40 -15.5 -70t-41.5 -50.5t-60.5 -31t-72.5 -10.5z" />
    <glyph glyph-name="nine" unicode="9" horiz-adv-x="437" 
d="M268 565q0 36 -15.5 47t-33.5 11q-19 0 -34.5 -11.5t-15.5 -46.5v-97q0 -52 50 -52q49 0 49 52v97zM219 756q37 0 71 -11t60 -32t41.5 -51t15.5 -68v-443q0 -39 -15.5 -69t-41 -50.5t-59.5 -31.5t-71 -11q-36 0 -69 10t-58.5 29t-41.5 47t-17 63v7q-1 2 -1 6v58h3h82
q17 0 27.5 -7t16.5 -16t8 -18.5t2 -14.5q0 -9 5.5 -15.5t13 -10.5t16 -6t13.5 -2t13 1.5t16 5t13.5 10.5t5.5 19v140q0 5 -7 4t-11 -3q-8 -3 -18.5 -5t-21 -2.5t-20 -1t-13.5 -0.5q-70 0 -108.5 42t-38.5 120v145q0 38 15.5 68t42 51t60.5 32t71 11z" />
    <glyph glyph-name="exclam" unicode="!" horiz-adv-x="241" 
d="M183 218q-2 -21 -18 -21h-86q-8 0 -13 4.5t-5 12.5q-1 22 -2.5 66t-3 98t-3.5 111.5t-3.5 106t-2.5 82t-1 38.5q0 33 23 33h108q23 0 22 -25q0 -4 -1 -36l-2.5 -80t-3.5 -106t-3.5 -113t-3 -101t-1.5 -70zM127 113q22 0 41.5 -3.5t19.5 -8.5v-93q0 -8 -19.5 -12t-41.5 -4
q-11 0 -23.5 1t-23.5 2.5t-18 4.5t-7 6v2v91q0 4 7.5 7t18.5 4.5t23.5 2t22.5 0.5z" />
    <glyph glyph-name="exclamdown" unicode="&#xa1;" horiz-adv-x="210" 
d="M44 530q2 21 18 21h86q8 0 13 -4.5t5 -12.5q1 -22 2.5 -66t3 -98t3.5 -111.5t3.5 -106t2.5 -82t1 -38.5q0 -33 -23 -33h-108q-23 0 -22 25q0 3 1 35.5t2.5 80.5t3.5 106t3.5 113t2.5 101t2 70zM100 635q-22 0 -41.5 3.5t-19.5 8.5v93q0 8 19.5 12t41.5 4q11 0 23.5 -1
t23.5 -2.5t18 -4.5t7 -6v-2v-91q0 -4 -7.5 -7t-18.5 -4.5t-23.5 -2t-22.5 -0.5z" />
    <glyph glyph-name="question" unicode="?" horiz-adv-x="403" 
d="M199 752q36 0 67.5 -9.5t55 -28.5t37 -47.5t13.5 -66.5v-114q0 -38 -19.5 -63.5t-43.5 -46t-43.5 -39t-19.5 -41.5v-118q0 -11 -5 -16t-10 -5h-95q-19 0 -19 21v139q0 33 20 56t44 42.5t44 37t20 38.5v103q0 15 -6 23t-13.5 12t-15 5t-11.5 1t-11.5 -1t-15 -5.5
t-13.5 -12.5t-6 -23v1v-63h-58q-35 0 -51 16.5t-16 37.5v28q0 33 13 59t36 44t54.5 27t67.5 9zM181 114q11 0 23 -1t21.5 -2.5t16 -4t6.5 -5.5v-85q0 -4 -6.5 -7t-16 -5t-21.5 -3t-23 -1q-23 0 -43.5 3.5t-20.5 10.5v2v84q0 8 21 11t43 3z" />
    <glyph glyph-name="questiondown" unicode="&#xbf;" horiz-adv-x="360" 
d="M181 0q-72 0 -112.5 42.5t-40.5 119.5v104q0 38 16.5 63.5t36.5 46t36.5 39t16.5 41.5v118q0 11 5 16t10 5h95q19 0 19 -21v-139q0 -33 -17 -56t-37 -42.5t-37 -37t-17 -38.5v-93q0 -30 9 -40.5t17 -10.5t17 10.5t9 41.5v2v-3v83h58q35 0 51 -16.5t16 -37.5v-18v-17
q0 -77 -39 -119.5t-112 -42.5zM199 638q-11 0 -23 1t-22 2.5t-16 4t-6 5.5v85q0 4 6 7t16 5t22 3t23 1q23 0 43.5 -3.5t20.5 -10.5v-2v-84q0 -8 -21 -11t-43 -3z" />
    <glyph glyph-name="oe" unicode="&#x153;" horiz-adv-x="641" 
d="M715 504q36 0 69 -10t58 -29t39.5 -45t14.5 -58v-229q0 -33 -14.5 -58t-39 -42.5t-57.5 -26.5t-69 -9q-35 0 -68 9t-58.5 28t-41 47.5t-15.5 66.5v205q0 38 14.5 66.5t39.5 47t58 28t70 9.5zM715 117q7 0 14.5 1.5t14.5 5.5t11.5 11.5t4.5 19.5v197q0 12 -5 19
t-11.5 10.5t-14.5 5t-14 1.5t-13.5 -1.5t-14 -5.5t-11.5 -11t-5 -19v-197q0 -11 4.5 -18.5t11 -11.5t14 -5.5t14.5 -1.5zM369 236v-89q0 -11 5.5 -17.5t13 -10t15 -4.5t10.5 -1q6 0 14.5 1.5t16 5t12.5 10t5 17.5v1q0 23 16.5 34t43.5 11h75v-65q0 -33 -15.5 -58t-41.5 -42
t-60 -25.5t-71 -8.5t-69 10.5t-56 31t-37.5 50.5t-13.5 68v183q0 38 14.5 69t39 52.5t57.5 33.5t70 12t70.5 -12t58.5 -33.5t39.5 -52.5t14.5 -69v-51q0 -26 -7 -38.5t-39 -12.5h-181zM369 312h88v33q0 16 -5 25.5t-12 14t-14.5 6t-12.5 1.5t-12 -1.5t-14.5 -6.5t-12.5 -14
t-5 -25v-33z" />
    <glyph glyph-name="ae" unicode="&#xe6;" horiz-adv-x="608" 
d="M378 224v-80q0 -11 3 -17.5t7.5 -10t9.5 -4.5t9 -1q7 0 17.5 4.5t10.5 18.5v12q0 23 17 39.5t43 16.5h75v-77q0 -66 -45 -100t-118 -34q-75 0 -119.5 41.5t-44.5 118.5v188q0 77 44.5 122t119.5 45q74 0 118.5 -45t44.5 -122v-64q0 -26 -11.5 -38.5t-44.5 -12.5h-136z
M378 313h54v31q0 19 -2 30.5t-6 17t-8.5 7t-8.5 1.5q-5 0 -10 -1.5t-9.5 -7t-7 -17t-2.5 -30.5v-31zM393 98q8 -5 14.5 -19.5t6.5 -33.5v-49h-37q-6 0 -19.5 3.5t-27 9t-24.5 11t-12 9.5q-3 -7 -14 -13.5t-26 -12t-33 -9t-34 -3.5q-49 0 -78.5 12.5t-45 34t-20.5 50t-5 60.5
v32q0 81 38.5 116.5t104.5 35.5q14 0 23.5 -2.5t14.5 -4.5q6 -3 10 -6q0 28 -0.5 37.5t-0.5 20.5q0 22 -23 22q-10 0 -17 -4.5t-7 -15.5q0 -14 -8.5 -26t-35.5 -12h-91v60q0 50 40.5 81t126.5 31q87 0 126.5 -35t39.5 -113l-1 -238q0 -8 6 -17t10 -12h-1zM199 100
q16 0 27 10t11 27v44q0 23 -7 37t-30 17q-22 3 -24 -18t-2 -60v6q0 -36 4 -49.5t21 -13.5z" />
    <glyph glyph-name="AE" unicode="&#xc6;" horiz-adv-x="668" 
d="M459 629q-5 0 -9.5 -4t-4.5 -10v-156q0 -15 14 -15h106q6 0 11 -3.5t5 -10.5v-90q0 -14 -15 -14h-107q-14 0 -14 -14v-183q0 -6 5 -10t10 -4h65q8 0 13 10t9.5 15t27.5 5h67v-120q0 -11 -10.5 -18t-21.5 -7h-65h-81h-200v47q0 6 2 14q0 22 10.5 33t20.5 16q8 4 12 15
q0 11 0.5 25.5t-0.5 21.5q-1 8 -4 10t-12 2h-76q-9 0 -13 -1.5t-5 -11.5q-1 -5 -3.5 -14.5t-5.5 -19.5q-4 -11 -9 -24q0 -10 2 -14t7 -8q8 -5 15 -25.5t7 -38.5v-27h-187v50q0 17 7.5 28t15.5 17q5 3 8.5 8t5.5 13q48 138 86 247q16 46 31.5 91t27.5 80t19.5 57t7.5 23
q1 8 -1 13.5t-13 9.5q-11 5 -23 17.5t-12 35.5v57h97h4h327q12 0 20.5 -9t8.5 -17v-133h-53q-20 0 -32 10t-17 19q-7 12 -21 12h-60zM296 289q7 0 10.5 1.5t2.5 7.5v21v46v58.5v58.5v45v19q0 4 -2.5 3.5t-3.5 -2.5q0 -1 -5 -19.5t-13 -45.5t-17 -58t-17 -58.5t-13.5 -46.5
t-5.5 -21q-1 -6 3 -7.5t11 -1.5h50z" />
    <glyph glyph-name="parenleft" unicode="(" horiz-adv-x="316" 
d="M168 -139q-65 0 -102.5 35.5t-37.5 87.5v781q0 29 7.5 53t24 41t43.5 26.5t65 9.5h117q3 0 3 -2v-125q0 -3 -3 -3h-102q-15 0 -15 -12v-754q0 -8 5.5 -11.5t10.5 -3.5h101q3 0 3 -3v-118q0 -2 -3 -2h-117v0z" />
    <glyph glyph-name="parenright" unicode=")" horiz-adv-x="316" 
d="M148 895q65 0 102.5 -35.5t37.5 -87.5v-781q0 -58 -32 -94t-108 -36h-117q-3 0 -3 2v119q0 3 3 3h102q15 0 15 12v753q0 8 -5.5 11.5t-10.5 3.5h-101q-3 0 -3 3v125q0 2 3 2h117v0z" />
    <glyph glyph-name="percent" unicode="%" horiz-adv-x="654" 
d="M161 752q36 0 61.5 -12t41.5 -31.5t23.5 -45t7.5 -52.5v-3v-55v-2q-1 -64 -31.5 -103.5t-102.5 -39.5q-69 0 -98.5 37t-34.5 106v17v27v13q3 71 32.5 107.5t100.5 36.5zM190 551v58q0 22 -3 33.5t-7 16.5t-9.5 5.5t-9.5 0.5t-9 -0.5t-9 -5.5t-7 -15.5t-3 -30.5v-5v-57v-4
q0 -20 2.5 -31t6.5 -16.5t9 -7t10 -1.5t10.5 0.5t9.5 6t6.5 17.5t2.5 35v1zM492 339q36 0 61.5 -12t41.5 -32t23.5 -45.5t7.5 -52.5v-3v-55v-2q-1 -64 -31.5 -103.5t-102.5 -39.5q-69 0 -98.5 37t-34.5 106v17v28v12q3 71 32.5 108t100.5 37zM521 195q0 22 -3 33.5t-7 16.5
t-9.5 5.5t-9.5 0.5t-9 -0.5t-9 -5.5t-7 -15.5t-3 -30.5v-5v-57v-4q0 -20 2.5 -31t6.5 -16.5t9 -6.5t10 -1t10.5 0.5t9.5 5.5t6.5 17.5t2.5 35.5v58zM510 750q2 0 2 -2l-249 -747q-2 -2 -4 -2h-117q-2 0 -2 2l250 747q0 2 3 2h117z" />
    <glyph glyph-name="bar" unicode="|" horiz-adv-x="176" 
d="M31 -13q-3 0 -3 2v766q0 3 3 3h114q3 0 3 -3v-766q0 -2 -3 -2h-114z" />
    <glyph glyph-name="Oslash" unicode="&#xd8;" horiz-adv-x="470" 
d="M415 749q2 0 2 -2l-313 -745q0 -2 -3 -2h-61q-2 0 -2 2l323 745q2 2 4 2h50zM244 -7q-93 0 -147 41.5t-54 118.5v444q0 77 53.5 119t147.5 42q95 0 146.5 -42t51.5 -119v-444q0 -77 -52 -118.5t-146 -41.5zM303 585q0 18 -7 29t-16.5 17t-19.5 8.5t-16 2.5t-16 -2
t-20 -7.5t-17.5 -15.5t-7.5 -27v-428q0 -15 6 -25t15 -16t20 -9t20 -3q21 0 40 12t19 42v422z" />
    <glyph glyph-name="fraction" unicode="&#x2044;" horiz-adv-x="315" 
d="M288 750q2 0 2 -2l-153 -747l-18.5 -0.5t-41 -1t-40.5 -0.5h-18l4 2q2 1 0 1t-2 1l150 745q2 2 4 2h113z" />
    <glyph glyph-name="braceleft" unicode="{" horiz-adv-x="411" 
d="M265 493q0 -39 -9.5 -69.5t-38.5 -42.5q30 -12 39 -43.5t9 -75.5v-263q0 -8 5.5 -11.5t10.5 -3.5h104v-124h-120q-65 0 -102.5 36t-37.5 88v308q-2 14 -8 18t-23 4h-54q-5 0 -10 3t-5 10v101q0 3 2 6q2 2 3.5 4.5t6.5 2.5h55q21 0 26.5 5t6.5 25v294q0 29 7.5 53t24 41
t43.5 26.5t65 9.5h120v-130h-105q-15 0 -15 -13v-259v0z" />
    <glyph glyph-name="braceright" unicode="}" horiz-adv-x="411" 
d="M145 257q0 39 9.5 69.5t38.5 42.5q-30 12 -39 43.5t-9 75.5v261q0 8 -5.5 11.5t-10.5 3.5h-104v131h120q32 0 58 -10.5t44 -28t28 -41t10 -49.5v-308q2 -14 8 -18t23 -4h54q5 0 10 -3t5 -10v-101q0 -4 -2 -7q-4 -6 -10 -6h-55q-21 0 -26.5 -5t-6.5 -25v-294
q0 -58 -31.5 -92t-108.5 -34h-120v125h105q15 0 15 13v260v0z" />
    <glyph glyph-name="A" unicode="A" horiz-adv-x="525" 
d="M480 114q8 -5 15 -16t7 -28v-70h-200v58q0 18 7 33t15 20q5 4 8.5 8t3.5 13q-1 8 -2 15q-1 6 -2.5 12.5t-2.5 11.5q-2 8 -7 10.5t-13 2.5h-94q-9 0 -12.5 -1.5t-5.5 -11.5q-1 -5 -2 -11.5t-3 -12.5q-2 -7 -3 -15q0 -9 2 -13t7 -8q8 -5 15 -20.5t7 -33.5v-57h-197v70
q0 17 7.5 28t14.5 16q5 4 9 9t6 13q28 133 51 239q10 45 19 88t16.5 77t12 55t4.5 22q2 8 2 14.5t-5 8.5q-11 5 -18 16.5t-7 34.5v57h155q23 0 36.5 -14t16.5 -31q0 -4 5.5 -30.5t14.5 -67t20 -91t22 -102.5q26 -122 60 -276q3 -13 15 -22zM298 299q7 0 9 1.5t1 7.5
q0 2 -3.5 21t-8 46t-10 58.5t-10 58.5t-8 45t-3.5 19q0 4 -2.5 3.5t-3.5 -2.5q0 -1 -3 -19.5t-8 -45.5t-10.5 -58t-10.5 -58.5t-8.5 -46.5t-3.5 -21q-1 -6 1 -7.5t9 -1.5h73z" />
    <glyph glyph-name="B" unicode="B" horiz-adv-x="491" 
d="M410 382q23 -16 30.5 -46t7.5 -66v-109q0 -74 -42 -117.5t-127 -43.5h-251v62q0 20 5.5 31t15.5 16q5 2 9 7.5t4 14.5v485q0 16 -12 21q-10 5 -16 16.5t-6 33.5v61h241q85 0 127 -44.5t42 -118.5v-84q0 -31 -5.5 -58.5t-24.5 -44.5q-5 -5 -4 -9t6 -7zM199 469
q0 -14 6 -17.5t17 -4.5h25q23 0 37.5 14t14.5 40v65q0 33 -14 48.5t-40 15.5h-23q-14 0 -18.5 -4t-4.5 -17v-140zM309 261q0 35 -11 55.5t-36 20.5h-45q-8 0 -13 -5t-5 -12v-189q0 -6 4 -11.5t10 -5.5h49q26 0 36.5 18t10.5 45v84z" />
    <glyph glyph-name="C" unicode="C" horiz-adv-x="480" 
d="M240 -5q-37 0 -72.5 9t-63 27.5t-44.5 47t-17 66.5v464q0 38 17 66.5t45 47t63.5 28t72.5 9.5t72.5 -9.5t63 -28t44 -47t16.5 -66.5v-74h-75q-25 0 -42 15t-17 39v1q0 10 -2.5 20t-9 17.5t-19 12t-32.5 4.5q-19 0 -31 -5t-19 -12t-9.5 -16t-2.5 -16v-438q0 -14 18 -28.5
t44 -14.5t45 12t19 28v10q0 23 13.5 39.5t40.5 16.5h79v-75q0 -38 -17 -66.5t-44.5 -47t-63 -27.5t-72.5 -9z" />
    <glyph glyph-name="hungarumlaut" unicode="&#x2dd;" horiz-adv-x="443" 
d="M222 683q2 -2 -1 -4l-141 -120q-2 -2 -4 0l-47 58q-2 2 0 4l141 118q2 2 4 0zM414 683q2 -2 -1 -4l-141 -120q-2 -2 -4 0l-47 58q-2 2 0 4l141 118q2 2 4 0z" />
    <glyph glyph-name="dagger" unicode="&#x2020;" horiz-adv-x="245" 
d="M85 -143q-3 0 -3 2l-20 766q0 3 3 3h114q3 0 3 -3l-20 -766q0 -2 -3 -2h-74zM217 332q0 -3 -2 -3h-185q-2 0 -2 3v75q0 3 2 3h185q2 0 2 -3v-75z" />
    <glyph glyph-name="plusminus" unicode="&#xb1;" horiz-adv-x="353" 
d="M325 3q0 -3 -3 -3h-289q-3 0 -3 3v95q0 3 3 3h289q3 0 3 -3v-95zM322 252q0 -2 -2 -2h-92q-3 0 -3 -3v-92q0 -2 -2 -2h-95q-3 0 -3 2v92q0 3 -3 3h-91q-3 0 -3 2v95q0 3 3 3h91q3 0 3 3v91q0 3 3 3h95q2 0 2 -3v-91q0 -3 3 -3h92q2 0 2 -3v-95z" />
    <glyph glyph-name="brokenbar" unicode="&#xa6;" horiz-adv-x="156" 
d="M31 -32q-3 0 -3 3v357q0 3 3 3h94q3 0 3 -3v-357q0 -3 -3 -3h-94zM31 405q-3 0 -3 3v357q0 3 3 3h94q3 0 3 -3v-357q0 -3 -3 -3h-94z" />
    <glyph glyph-name="bullet" unicode="&#x2022;" horiz-adv-x="233" 
d="M195 472v-134q0 -4 -8.5 -7t-21.5 -5.5t-27.5 -3.5t-26.5 -1t-26.5 1t-27 3t-21 5t-8.5 7v1v132q0 4 8.5 7.5t21.5 5t27 2.5t26 1t26.5 -1t27.5 -3t21.5 -4.5t8.5 -5.5z" />
    <glyph glyph-name="trademark" unicode="&#x2122;" horiz-adv-x="556" 
d="M214 636q11 0 16 -8t5 -19v-22v-23h-26q-6 0 -12 4.5t-6 11.5q0 4 -5 4h-13q-7 0 -7 -8v-217q0 -5 2 -6.5t4 -3.5q3 -2 6 -6.5t3 -12.5v-29h-90v29q0 8 3.5 12.5t7.5 6.5q2 2 3.5 4t1.5 6v218q0 7 -7 7h-12h-4t-2 -4q0 -16 -24 -16h-20v25v22q0 11 6 18t17 7h153z
M518 607q0 -14 -8 -20q-4 -3 -7 -4v-224q0 -5 1.5 -6.5l3.5 -3.5q3 -2 6.5 -7t3.5 -13v-28h-90v28q0 8 4 13t7 7l3.5 3.5t1.5 6.5v130q0 4 -2 0q-12 -23 -22 -41q-8 -16 -15.5 -29.5t-9.5 -16.5q-4 -8 -12.5 -8t-12.5 7q-2 3 -9.5 17t-15.5 31q-10 18 -21 42q0 1 -1 1t-1 -2
v-131q0 -5 1 -6.5t3 -3.5q4 -2 7.5 -7t3.5 -13v-28h-90v28q0 8 4 13t7 7q2 2 3 3.5t2 5.5v225q-5 1 -9 4q-8 6 -8 20v29h57q3 0 5.5 -1.5t4.5 -6.5q6 -14 17 -36.5t21.5 -45t18.5 -39l8 -16.5q4 -6 9 0l34 68q15 30 35 68q2 6 5 7.5t7 1.5h50v-29z" />
    <glyph glyph-name="daggerdbl" unicode="&#x2021;" horiz-adv-x="248" 
d="M85 -143q-3 0 -3 2l-20 766q0 3 3 3h114q3 0 3 -3l-20 -766q0 -2 -3 -2h-74zM217 342q0 -3 -2 -3h-185q-2 0 -2 3v75q0 3 2 3h185q2 0 2 -3v-75zM217 2q0 -3 -2 -3h-185q-2 0 -2 3v75q0 3 2 3h185q2 0 2 -3v-75z" />
    <glyph glyph-name="guilsinglleft" unicode="&#x2039;" horiz-adv-x="322" 
d="M130 301q-4 -2 0 -4l154 -155q1 -1 0 -4l-46 -45q-2 -2 -4 0l-204 204l-2 2l2 2l97.5 97.5l106.5 106.5q2 2 4 0l46 -46q2 -2 0 -4z" />
    <glyph glyph-name="guillemotleft" unicode="&#xab;" horiz-adv-x="508" 
d="M137 301q-4 -2 0 -4l144 -165q1 -1 0 -4l-42 -42q-2 -2 -4 0q-39 39 -65.5 66t-45.5 46.5t-31.5 32.5t-22 23.5t-19 20.5t-21.5 22l-2 2l2 2q48 48 97.5 102t106.5 111q2 2 4 0l43 -45q2 -2 0 -4zM327 301q-4 -2 0 -4l144 -165q1 -1 0 -4l-42 -42q-2 -2 -4 0
q-39 39 -65.5 66t-45.5 46.5t-31.5 32.5t-22 23.5t-19 20.5t-21.5 22l-2 2l2 2q48 48 97.5 102t106.5 111q2 2 4 0l43 -45q2 -2 0 -4z" />
    <glyph glyph-name="guillemotright" unicode="&#xbb;" horiz-adv-x="526" 
d="M375 301q4 2 0 4l-144 165q-1 1 0 4l42 42q2 2 4 0q39 -39 65.5 -66t45.5 -46.5t31.5 -32.5t22 -23.5t19 -20.5t21.5 -22l2 -2l-2 -2q-48 -48 -97.5 -102t-106.5 -111q-2 -2 -4 0l-43 45q-2 2 0 4zM185 301q4 2 0 4l-144 165q-1 1 0 4l42 42q2 2 4 0q39 -39 65.5 -66
t45.5 -46.5t31.5 -32.5t22 -23.5t19 -20.5t21.5 -22l2 -2l-2 -2q-48 -48 -97.5 -102t-106.5 -111q-2 -2 -4 0l-43 45q-2 2 0 4z" />
    <glyph glyph-name="logicalnot" unicode="&#xac;" horiz-adv-x="468" 
d="M434 247q0 -3 -3 -3h-399q-3 0 -3 3v101q0 3 3 3h399q3 0 3 -3v-101zM331 149q-3 0 -3 3v196q0 3 3 3h100q3 0 3 -3v-196q0 -3 -3 -3h-100z" />
    <glyph glyph-name="Eth" unicode="&#xd0;" horiz-adv-x="466" 
d="M260 747q78 0 119 -44t41 -119v-422q0 -75 -41 -119t-119 -44h-235v60q0 22 5.5 33.5t15.5 16.5q12 7 12 21v169h-25q-2 0 -2 3v95q0 3 2 3h25v214q0 16 -13 23q-20 11 -20 46v64h235zM287 566q0 24 -1.5 36.5t-9 18.5t-23 7t-43.5 1q-13 0 -14.5 -6.5t-1.5 -12.5v-210
h24q2 0 2 -3v-95q0 -3 -2 -3h-24v-171q0 -6 2 -10t12 -4h30t25 4t17.5 12.5t6.5 26.5v409z" />
    <glyph glyph-name="OE" unicode="&#x152;" horiz-adv-x="664" 
d="M433 632q-5 0 -9.5 -4.5t-4.5 -9.5v-156q0 -7 4.5 -10.5t10.5 -3.5h106q5 0 10.5 -3.5t5.5 -11.5v-90q0 -14 -15 -14h-107q-15 0 -15 -13v-187q0 -6 5 -10t11 -4h60q9 0 14 10q2 5 5 12t8.5 13t13.5 10.5t19 4.5h62v-140q0 -11 -11 -18t-22 -7h-65h-209h-5q-32 -8 -71 -8
q-93 0 -140 41.5t-47 118.5v444q0 77 46.5 119t140.5 42q38 0 72 -8h282q12 0 20.5 -9t8.5 -17v-132h-59q-20 0 -32 10t-17 19q-7 12 -21 12h-55zM183 161q0 -29 16 -41t35 -12q21 0 35 12t14 42v422q0 18 -5.5 29t-13 17t-16 8.5t-14.5 2.5t-14.5 -2t-16.5 -7.5t-14 -15.5
t-6 -27v-428z" />
    <glyph glyph-name="cedilla" unicode="&#xb8;" horiz-adv-x="167" 
d="M101 -42q26 -8 37 -28.5t4 -47.5q-8 -28 -25 -41t-43 -7l-53 14q1 6 3 10l2 8t2 7q2 11 10 13.5t16 0.5l32 -9q4 -1 9.5 2t7.5 12q4 18 -12 22l-33 8v78h43v-42v0z" />
    <glyph glyph-name="Ccedilla" unicode="&#xc7;" horiz-adv-x="450" 
d="M231 -5q-37 0 -72.5 9t-63 27.5t-44.5 47t-17 66.5v464q0 38 17 66.5t45 47t63.5 28t72.5 9.5t72.5 -9.5t63 -28t44 -47t16.5 -66.5v-74h-75q-25 0 -42 15t-17 39v1q0 10 -2.5 20t-9 17.5t-19 12t-32.5 4.5q-19 0 -31 -5t-19 -12t-9.5 -16t-2.5 -16v-438q0 -14 18 -28.5
t44 -14.5t45 12t19 28v10q0 23 13.5 39.5t40.5 16.5h79v-75q0 -38 -17 -66.5t-44.5 -47t-63 -27.5t-72.5 -9zM240 -42q26 -8 37 -28.5t4 -47.5q-8 -28 -25 -41t-43 -7l-53 14q1 6 3 10l2 8t2 7q2 11 10 13.5t16 0.5l32 -9q4 -1 9.5 2t7.5 12q4 18 -12 22l-33 8v78h43v-42v0z
" />
    <glyph glyph-name="ccedilla" unicode="&#xe7;" horiz-adv-x="413" 
d="M287 311q-14 0 -21.5 0.5t-12 4t-5.5 11t-1 22.5q0 26 -14 33t-28 7t-27.5 -7.5t-13.5 -35.5v-194q0 -24 13 -31t31 -7t30.5 10t12.5 27q0 23 11.5 34t37.5 11h86v-58q0 -38 -14 -64.5t-38 -44t-56.5 -25.5t-68.5 -8q-37 0 -70 8t-58.5 26.5t-40.5 49t-15 76.5v188
q0 44 14.5 75t39 50t57.5 27.5t70 8.5q36 0 68.5 -10.5t57 -29.5t39 -45.5t14.5 -57.5v-51h-98v0zM221 -42q26 -8 37 -28.5t4 -47.5q-8 -28 -25 -41t-43 -7l-53 14q1 6 3 10l2 8t2 7q2 11 10 13.5t16 0.5l32 -9q4 -1 9.5 2t7.5 12q4 18 -12 22l-33 8v78h43v-42v0z" />
    <glyph glyph-name="ogonek" unicode="&#x2db;" horiz-adv-x="177" 
d="M31 -118q-7 27 4 47.5t37 28.5v42h43v-78l-33 -8q-16 -4 -12 -22q2 -9 7.5 -12t9.5 -2l32 9q8 2 16 -0.5t10 -13.5q1 -3 1.5 -7t2.5 -8q1 -4 3 -10l-53 -14q-26 -6 -43 7t-25 41z" />
    <glyph glyph-name="florin" unicode="&#x192;" horiz-adv-x="322" 
d="M228 501h61v-53q0 -30 -15 -52.5t-46 -22.5v-414q0 -32 -15.5 -53t-41.5 -31.5t-60 -11t-71 8.5q-6 2 -7.5 5.5t-1.5 10.5v99q0 9 3.5 10.5t5.5 0.5q20 -8 36 -1t16 29v348h-63v68q0 29 17 44t46 15v153q0 32 15.5 53t41.5 31.5t60 11t71 -8.5q6 -2 7.5 -5.5t1.5 -10.5
v-99q0 -9 -3.5 -10.5t-5.5 -0.5q-20 8 -36 1t-16 -29v-86z" />
    <glyph glyph-name="dotaccent" unicode="&#x2d9;" horiz-adv-x="154" 
d="M123 617v-61q0 -6 -13 -10t-33 -4t-33 3t-13 9v2v59q0 8 13.5 10.5t32.5 2.5q20 0 33 -3t13 -8z" />
    <glyph glyph-name="thorn" unicode="&#xfe;" horiz-adv-x="391" 
d="M231 504q37 0 61.5 -13t39 -36t20.5 -55t6 -70v-178q0 -38 -6 -68t-21.5 -49.5t-42.5 -29t-68 -7.5q-16 1 -28.5 3.5t-20.5 4.5q-11 3 -18 6v-102v-64q0 -2 -3 -2h-114q-3 0 -3 2v786q0 3 3 3h114q3 0 3 -3v-151q4 5 22 14t56 9zM222 311q0 29 -8.5 41t-34.5 9
q-6 -1 -11 -3.5t-8 -4.5q-4 -3 -7 -6v-195q1 -6 5 -10q3 -4 8 -8t13 -5q13 -2 21.5 1.5t13.5 11t6.5 17.5t1.5 20v132z" />
    <glyph glyph-name="oslash" unicode="&#xf8;" horiz-adv-x="417" 
d="M342 450q17 -19 27 -41.5t10 -45.5v-219q0 -33 -13 -59.5t-35.5 -46t-54 -30t-67.5 -10.5q-49 0 -87 20l-8 -15q0 -2 -3 -2h-61q-2 0 -2 2l26 52q-17 20 -26.5 46t-9.5 58v185q0 38 13 68t35.5 50.5t53.5 31.5t68 11q48 0 85 -20l7 13q2 2 4 2h60q2 0 2 -2zM173 249
l63 124q-5 9 -12.5 12.5t-15.5 3.5q-11 0 -23 -9t-12 -38v-93zM208 118q14 0 24.5 8t10.5 40v90l-63 -124q5 -8 12.5 -11t15.5 -3z" />
    <glyph glyph-name="sterling" unicode="&#xa3;" horiz-adv-x="483" 
d="M455 235v-95q0 -37 -12.5 -65t-33.5 -46.5t-50 -28t-62 -9.5q-13 0 -32 1.5t-39.5 3.5t-40 3.5t-31.5 1.5q-14 0 -24 -1.5t-17 -3.5q-8 -3 -13 -5q-7 9 -19 27.5t-24 36.5q-14 21 -29 46q25 14 45 38q17 20 31.5 52t14.5 79q0 21 -2 33t-6 28h-61v58h46q-6 18 -12.5 35.5
t-11.5 37.5t-8.5 44t-3.5 54q-3 54 16 97q8 18 21.5 36t34.5 31.5t50.5 22t69.5 8.5q94 0 143 -47.5t49 -124.5v-73h-66q-38 0 -53 15.5t-15 47.5q0 35 -15.5 50.5t-43.5 15.5t-40 -12.5t-16 -26.5q-4 -17 0 -38q0 -24 4 -44.5t10 -41t13.5 -41.5t14.5 -46h84v-58h-74
q3 -20 5 -36.5t2 -42.5q0 -19 -5 -37t-12.5 -34t-15 -31t-13.5 -28q20 -2 36 -3t26 -1q7 0 16.5 3.5t17 9.5t13 14t5.5 18v16q0 23 13.5 39.5t40.5 16.5h79z" />
    <glyph glyph-name="copyright" unicode="&#xa9;" horiz-adv-x="586" 
d="M356 381h51v43q0 19 -8.5 36.5t-24 31.5t-36.5 22.5t-46 8.5q-51 0 -84.5 -29t-33.5 -83v-130q0 -54 33.5 -82.5t84.5 -28.5t83.5 26.5t32.5 71.5v48h-50q-19 0 -31.5 -9.5t-12.5 -25.5v-4q0 -11 -5 -18t-18 -7q-24 0 -24 31v130q0 19 6 24.5t16 5.5q9 0 15.5 -5.5
t6.5 -24.5q0 -20 13 -26t32 -6zM293 83q-54 0 -102 20t-86 58t-57.5 85.5t-19.5 101.5t19.5 101.5t57.5 85.5t86 58t102 20q53 0 101 -20t86 -58t58 -85.5t20 -101.5t-20 -101.5t-58 -85.5t-86 -58t-101 -20zM293 583q-49 0 -91.5 -18.5t-74.5 -50.5t-50.5 -74.5
t-18.5 -91.5t18.5 -91.5t50.5 -74.5t74.5 -50.5t91.5 -18.5q48 0 91 18.5t75 50.5t50.5 74.5t18.5 91.5t-18.5 91.5t-50.5 74.5t-75 50.5t-91 18.5z" />
    <glyph glyph-name="registered" unicode="&#xae;" horiz-adv-x="428" 
d="M346 618q54 -54 54 -131q0 -38 -14 -72t-40 -60q-56 -54 -132 -54q-38 0 -72 14t-60 40t-40 60t-14 72q0 77 54 131q26 27 60 41t72 14q77 0 132 -55zM214 331q32 0 60.5 12.5t49.5 33.5t33.5 49.5t12.5 60.5t-12.5 60.5t-33.5 49.5t-49.5 33t-60.5 12t-60.5 -12
t-49.5 -33t-33.5 -49.5t-12.5 -60.5t12.5 -60.5t33.5 -49.5t49.5 -33.5t60.5 -12.5zM274 401q2 -2 6 -5t4 -9v-20h-38q-8 0 -12 8t-4 15v58q0 11 -7 14.5t-12 3.5q-7 0 -8.5 -1t-1.5 -5v-52q0 -3 2.5 -5t4.5 -4q4 -3 4 -14v-18h-63v17q0 12 5 15q4 4 4 10v154v5t-2 4
q-6 4 -6 16v20h74q24 0 35 -15t11 -39v-29q0 -11 -1 -19.5t-7 -13.5q-1 0 -1.5 -1.5t1.5 -2.5q8 -5 8 -11.5v-18.5v-50q0 -3 1 -4zM231 550q0 11 -3 15.5t-14 4.5h-10q-3 0 -3 -5v-58q0 -5 10 -5q8 0 14 3t6 14v31z" />
    </font>
</defs>
</svg>
